<svg width="433" height="317" viewBox="0 0 433 317" fill="none" xmlns="http://www.w3.org/2000/svg">
<g filter="url(#filter0_d_323_183)">
<rect x="74.5" y="127.5" width="178" height="180" stroke="#55AD47" stroke-width="3"/>
<rect x="74.5" y="127.5" width="57" height="180" stroke="#55AD47" stroke-width="3"/>
<rect x="74.5" y="127.5" width="119" height="180" stroke="#55AD47" stroke-width="3"/>
<rect x="74.5" y="127.5" width="178" height="180" stroke="#55AD47" stroke-width="3"/>
<line x1="74" y1="169.5" x2="254" y2="169.5" stroke="#55AD47" stroke-width="3"/>
<line x1="74" y1="219.5" x2="253" y2="219.5" stroke="#55AD47" stroke-width="3"/>
<line x1="73" y1="269.5" x2="253" y2="269.5" stroke="#55AD47" stroke-width="3"/>
<line x1="74" y1="307.5" x2="254" y2="307.5" stroke="#55AD47" stroke-width="3"/>
<path d="M139.624 4.66C140.512 4.66 141.288 4.832 141.952 5.176C142.624 5.512 143.14 6 143.5 6.64C143.868 7.272 144.052 8.012 144.052 8.86C144.052 9.708 143.868 10.444 143.5 11.068C143.14 11.692 142.624 12.172 141.952 12.508C141.288 12.836 140.512 13 139.624 13H136.9V4.66H139.624ZM139.624 11.884C140.6 11.884 141.348 11.62 141.868 11.092C142.388 10.564 142.648 9.82 142.648 8.86C142.648 7.892 142.388 7.136 141.868 6.592C141.348 6.048 140.6 5.776 139.624 5.776H138.268V11.884H139.624ZM144.952 9.664C144.952 9 145.088 8.412 145.36 7.9C145.64 7.388 146.016 6.992 146.488 6.712C146.968 6.424 147.496 6.28 148.072 6.28C148.592 6.28 149.044 6.384 149.428 6.592C149.82 6.792 150.132 7.044 150.364 7.348V6.388H151.744V13H150.364V12.016C150.132 12.328 149.816 12.588 149.416 12.796C149.016 13.004 148.56 13.108 148.048 13.108C147.48 13.108 146.96 12.964 146.488 12.676C146.016 12.38 145.64 11.972 145.36 11.452C145.088 10.924 144.952 10.328 144.952 9.664ZM150.364 9.688C150.364 9.232 150.268 8.836 150.076 8.5C149.892 8.164 149.648 7.908 149.344 7.732C149.04 7.556 148.712 7.468 148.36 7.468C148.008 7.468 147.68 7.556 147.376 7.732C147.072 7.9 146.824 8.152 146.632 8.488C146.448 8.816 146.356 9.208 146.356 9.664C146.356 10.12 146.448 10.52 146.632 10.864C146.824 11.208 147.072 11.472 147.376 11.656C147.688 11.832 148.016 11.92 148.36 11.92C148.712 11.92 149.04 11.832 149.344 11.656C149.648 11.48 149.892 11.224 150.076 10.888C150.268 10.544 150.364 10.144 150.364 9.688ZM155.137 7.504V11.164C155.137 11.412 155.193 11.592 155.305 11.704C155.425 11.808 155.625 11.86 155.905 11.86H156.745V13H155.665C155.049 13 154.577 12.856 154.249 12.568C153.921 12.28 153.757 11.812 153.757 11.164V7.504H152.977V6.388H153.757V4.744H155.137V6.388H156.745V7.504H155.137ZM157.549 9.664C157.549 9 157.685 8.412 157.957 7.9C158.237 7.388 158.613 6.992 159.085 6.712C159.565 6.424 160.093 6.28 160.669 6.28C161.189 6.28 161.641 6.384 162.025 6.592C162.417 6.792 162.729 7.044 162.961 7.348V6.388H164.341V13H162.961V12.016C162.729 12.328 162.413 12.588 162.013 12.796C161.613 13.004 161.157 13.108 160.645 13.108C160.077 13.108 159.557 12.964 159.085 12.676C158.613 12.38 158.237 11.972 157.957 11.452C157.685 10.924 157.549 10.328 157.549 9.664ZM162.961 9.688C162.961 9.232 162.865 8.836 162.673 8.5C162.489 8.164 162.245 7.908 161.941 7.732C161.637 7.556 161.309 7.468 160.957 7.468C160.605 7.468 160.277 7.556 159.973 7.732C159.669 7.9 159.421 8.152 159.229 8.488C159.045 8.816 158.953 9.208 158.953 9.664C158.953 10.12 159.045 10.52 159.229 10.864C159.421 11.208 159.669 11.472 159.973 11.656C160.285 11.832 160.613 11.92 160.957 11.92C161.309 11.92 161.637 11.832 161.941 11.656C162.245 11.48 162.489 11.224 162.673 10.888C162.865 10.544 162.961 10.144 162.961 9.688ZM167.506 7.372C167.738 7.052 168.054 6.792 168.454 6.592C168.862 6.384 169.314 6.28 169.81 6.28C170.394 6.28 170.922 6.42 171.394 6.7C171.866 6.98 172.238 7.38 172.51 7.9C172.782 8.412 172.918 9 172.918 9.664C172.918 10.328 172.782 10.924 172.51 11.452C172.238 11.972 171.862 12.38 171.382 12.676C170.91 12.964 170.386 13.108 169.81 13.108C169.298 13.108 168.842 13.008 168.442 12.808C168.05 12.608 167.738 12.352 167.506 12.04V13H166.138V4.12H167.506V7.372ZM171.526 9.664C171.526 9.208 171.43 8.816 171.238 8.488C171.054 8.152 170.806 7.9 170.494 7.732C170.19 7.556 169.862 7.468 169.51 7.468C169.166 7.468 168.838 7.556 168.526 7.732C168.222 7.908 167.974 8.164 167.782 8.5C167.598 8.836 167.506 9.232 167.506 9.688C167.506 10.144 167.598 10.544 167.782 10.888C167.974 11.224 168.222 11.48 168.526 11.656C168.838 11.832 169.166 11.92 169.51 11.92C169.862 11.92 170.19 11.832 170.494 11.656C170.806 11.472 171.054 11.208 171.238 10.864C171.43 10.52 171.526 10.12 171.526 9.664ZM173.815 9.664C173.815 9 173.951 8.412 174.223 7.9C174.503 7.388 174.879 6.992 175.351 6.712C175.831 6.424 176.359 6.28 176.935 6.28C177.455 6.28 177.907 6.384 178.291 6.592C178.683 6.792 178.995 7.044 179.227 7.348V6.388H180.607V13H179.227V12.016C178.995 12.328 178.679 12.588 178.279 12.796C177.879 13.004 177.423 13.108 176.911 13.108C176.343 13.108 175.823 12.964 175.351 12.676C174.879 12.38 174.503 11.972 174.223 11.452C173.951 10.924 173.815 10.328 173.815 9.664ZM179.227 9.688C179.227 9.232 179.131 8.836 178.939 8.5C178.755 8.164 178.511 7.908 178.207 7.732C177.903 7.556 177.575 7.468 177.223 7.468C176.871 7.468 176.543 7.556 176.239 7.732C175.935 7.9 175.687 8.152 175.495 8.488C175.311 8.816 175.219 9.208 175.219 9.664C175.219 10.12 175.311 10.52 175.495 10.864C175.687 11.208 175.935 11.472 176.239 11.656C176.551 11.832 176.879 11.92 177.223 11.92C177.575 11.92 177.903 11.832 178.207 11.656C178.511 11.48 178.755 11.224 178.939 10.888C179.131 10.544 179.227 10.144 179.227 9.688ZM184.804 13.108C184.284 13.108 183.816 13.016 183.4 12.832C182.992 12.64 182.668 12.384 182.428 12.064C182.188 11.736 182.06 11.372 182.044 10.972H183.46C183.484 11.252 183.616 11.488 183.856 11.68C184.104 11.864 184.412 11.956 184.78 11.956C185.164 11.956 185.46 11.884 185.668 11.74C185.884 11.588 185.992 11.396 185.992 11.164C185.992 10.916 185.872 10.732 185.632 10.612C185.4 10.492 185.028 10.36 184.516 10.216C184.02 10.08 183.616 9.948 183.304 9.82C182.992 9.692 182.72 9.496 182.488 9.232C182.264 8.968 182.152 8.62 182.152 8.188C182.152 7.836 182.256 7.516 182.464 7.228C182.672 6.932 182.968 6.7 183.352 6.532C183.744 6.364 184.192 6.28 184.696 6.28C185.448 6.28 186.052 6.472 186.508 6.856C186.972 7.232 187.22 7.748 187.252 8.404H185.884C185.86 8.108 185.74 7.872 185.524 7.696C185.308 7.52 185.016 7.432 184.648 7.432C184.288 7.432 184.012 7.5 183.82 7.636C183.628 7.772 183.532 7.952 183.532 8.176C183.532 8.352 183.596 8.5 183.724 8.62C183.852 8.74 184.008 8.836 184.192 8.908C184.376 8.972 184.648 9.056 185.008 9.16C185.488 9.288 185.88 9.42 186.184 9.556C186.496 9.684 186.764 9.876 186.988 10.132C187.212 10.388 187.328 10.728 187.336 11.152C187.336 11.528 187.232 11.864 187.024 12.16C186.816 12.456 186.52 12.688 186.136 12.856C185.76 13.024 185.316 13.108 184.804 13.108ZM194.874 9.532C194.874 9.78 194.858 10.004 194.826 10.204H189.774C189.814 10.732 190.01 11.156 190.362 11.476C190.714 11.796 191.146 11.956 191.658 11.956C192.394 11.956 192.914 11.648 193.218 11.032H194.694C194.494 11.64 194.13 12.14 193.602 12.532C193.082 12.916 192.434 13.108 191.658 13.108C191.026 13.108 190.458 12.968 189.954 12.688C189.458 12.4 189.066 12 188.778 11.488C188.498 10.968 188.358 10.368 188.358 9.688C188.358 9.008 188.494 8.412 188.766 7.9C189.046 7.38 189.434 6.98 189.93 6.7C190.434 6.42 191.01 6.28 191.658 6.28C192.282 6.28 192.838 6.416 193.326 6.688C193.814 6.96 194.194 7.344 194.466 7.84C194.738 8.328 194.874 8.892 194.874 9.532ZM193.446 9.1C193.438 8.596 193.258 8.192 192.906 7.888C192.554 7.584 192.118 7.432 191.598 7.432C191.126 7.432 190.722 7.584 190.386 7.888C190.05 8.184 189.85 8.588 189.786 9.1H193.446Z" fill="#F05133"/>
<path d="M151.288 63.66V64.776H149.068V72H147.7V64.776H145.468V63.66H151.288ZM152.217 68.664C152.217 68 152.353 67.412 152.625 66.9C152.905 66.388 153.281 65.992 153.753 65.712C154.233 65.424 154.761 65.28 155.337 65.28C155.857 65.28 156.309 65.384 156.693 65.592C157.085 65.792 157.397 66.044 157.629 66.348V65.388H159.009V72H157.629V71.016C157.397 71.328 157.081 71.588 156.681 71.796C156.281 72.004 155.825 72.108 155.313 72.108C154.745 72.108 154.225 71.964 153.753 71.676C153.281 71.38 152.905 70.972 152.625 70.452C152.353 69.924 152.217 69.328 152.217 68.664ZM157.629 68.688C157.629 68.232 157.533 67.836 157.341 67.5C157.157 67.164 156.913 66.908 156.609 66.732C156.305 66.556 155.977 66.468 155.625 66.468C155.273 66.468 154.945 66.556 154.641 66.732C154.337 66.9 154.089 67.152 153.897 67.488C153.713 67.816 153.621 68.208 153.621 68.664C153.621 69.12 153.713 69.52 153.897 69.864C154.089 70.208 154.337 70.472 154.641 70.656C154.953 70.832 155.281 70.92 155.625 70.92C155.977 70.92 156.305 70.832 156.609 70.656C156.913 70.48 157.157 70.224 157.341 69.888C157.533 69.544 157.629 69.144 157.629 68.688ZM162.174 66.372C162.406 66.052 162.722 65.792 163.122 65.592C163.53 65.384 163.982 65.28 164.478 65.28C165.062 65.28 165.59 65.42 166.062 65.7C166.534 65.98 166.906 66.38 167.178 66.9C167.45 67.412 167.586 68 167.586 68.664C167.586 69.328 167.45 69.924 167.178 70.452C166.906 70.972 166.53 71.38 166.05 71.676C165.578 71.964 165.054 72.108 164.478 72.108C163.966 72.108 163.51 72.008 163.11 71.808C162.718 71.608 162.406 71.352 162.174 71.04V72H160.806V63.12H162.174V66.372ZM166.194 68.664C166.194 68.208 166.098 67.816 165.906 67.488C165.722 67.152 165.474 66.9 165.162 66.732C164.858 66.556 164.53 66.468 164.178 66.468C163.834 66.468 163.506 66.556 163.194 66.732C162.89 66.908 162.642 67.164 162.45 67.5C162.266 67.836 162.174 68.232 162.174 68.688C162.174 69.144 162.266 69.544 162.45 69.888C162.642 70.224 162.89 70.48 163.194 70.656C163.506 70.832 163.834 70.92 164.178 70.92C164.53 70.92 164.858 70.832 165.162 70.656C165.474 70.472 165.722 70.208 165.906 69.864C166.098 69.52 166.194 69.12 166.194 68.664ZM170.307 63.12V72H168.939V63.12H170.307ZM178.163 68.532C178.163 68.78 178.147 69.004 178.115 69.204H173.063C173.103 69.732 173.299 70.156 173.651 70.476C174.003 70.796 174.435 70.956 174.947 70.956C175.683 70.956 176.203 70.648 176.507 70.032H177.983C177.783 70.64 177.419 71.14 176.891 71.532C176.371 71.916 175.723 72.108 174.947 72.108C174.315 72.108 173.747 71.968 173.243 71.688C172.747 71.4 172.355 71 172.067 70.488C171.787 69.968 171.647 69.368 171.647 68.688C171.647 68.008 171.783 67.412 172.055 66.9C172.335 66.38 172.723 65.98 173.219 65.7C173.723 65.42 174.299 65.28 174.947 65.28C175.571 65.28 176.127 65.416 176.615 65.688C177.103 65.96 177.483 66.344 177.755 66.84C178.027 67.328 178.163 67.892 178.163 68.532ZM176.735 68.1C176.727 67.596 176.547 67.192 176.195 66.888C175.843 66.584 175.407 66.432 174.887 66.432C174.415 66.432 174.011 66.584 173.675 66.888C173.339 67.184 173.139 67.588 173.075 68.1H176.735ZM181.909 72.108C181.389 72.108 180.921 72.016 180.505 71.832C180.097 71.64 179.773 71.384 179.533 71.064C179.293 70.736 179.165 70.372 179.149 69.972H180.565C180.589 70.252 180.721 70.488 180.961 70.68C181.209 70.864 181.517 70.956 181.885 70.956C182.269 70.956 182.565 70.884 182.773 70.74C182.989 70.588 183.097 70.396 183.097 70.164C183.097 69.916 182.977 69.732 182.737 69.612C182.505 69.492 182.133 69.36 181.621 69.216C181.125 69.08 180.721 68.948 180.409 68.82C180.097 68.692 179.825 68.496 179.593 68.232C179.369 67.968 179.257 67.62 179.257 67.188C179.257 66.836 179.361 66.516 179.569 66.228C179.777 65.932 180.073 65.7 180.457 65.532C180.849 65.364 181.297 65.28 181.801 65.28C182.553 65.28 183.157 65.472 183.613 65.856C184.077 66.232 184.325 66.748 184.357 67.404H182.989C182.965 67.108 182.845 66.872 182.629 66.696C182.413 66.52 182.121 66.432 181.753 66.432C181.393 66.432 181.117 66.5 180.925 66.636C180.733 66.772 180.637 66.952 180.637 67.176C180.637 67.352 180.701 67.5 180.829 67.62C180.957 67.74 181.113 67.836 181.297 67.908C181.481 67.972 181.753 68.056 182.113 68.16C182.593 68.288 182.985 68.42 183.289 68.556C183.601 68.684 183.869 68.876 184.093 69.132C184.317 69.388 184.433 69.728 184.441 70.152C184.441 70.528 184.337 70.864 184.129 71.16C183.921 71.456 183.625 71.688 183.241 71.856C182.865 72.024 182.421 72.108 181.909 72.108Z" fill="#F05133"/>
<path d="M9.232 298L7.312 294.664H6.268V298H4.9V289.66H7.78C8.42 289.66 8.96 289.772 9.4 289.996C9.848 290.22 10.18 290.52 10.396 290.896C10.62 291.272 10.732 291.692 10.732 292.156C10.732 292.7 10.572 293.196 10.252 293.644C9.94 294.084 9.456 294.384 8.8 294.544L10.864 298H9.232ZM6.268 293.572H7.78C8.292 293.572 8.676 293.444 8.932 293.188C9.196 292.932 9.328 292.588 9.328 292.156C9.328 291.724 9.2 291.388 8.944 291.148C8.688 290.9 8.3 290.776 7.78 290.776H6.268V293.572ZM15.35 298.108C14.726 298.108 14.162 297.968 13.658 297.688C13.154 297.4 12.758 297 12.47 296.488C12.182 295.968 12.038 295.368 12.038 294.688C12.038 294.016 12.186 293.42 12.482 292.9C12.778 292.38 13.182 291.98 13.694 291.7C14.206 291.42 14.778 291.28 15.41 291.28C16.042 291.28 16.614 291.42 17.126 291.7C17.638 291.98 18.042 292.38 18.338 292.9C18.634 293.42 18.782 294.016 18.782 294.688C18.782 295.36 18.63 295.956 18.326 296.476C18.022 296.996 17.606 297.4 17.078 297.688C16.558 297.968 15.982 298.108 15.35 298.108ZM15.35 296.92C15.702 296.92 16.03 296.836 16.334 296.668C16.646 296.5 16.898 296.248 17.09 295.912C17.282 295.576 17.378 295.168 17.378 294.688C17.378 294.208 17.286 293.804 17.102 293.476C16.918 293.14 16.674 292.888 16.37 292.72C16.066 292.552 15.738 292.468 15.386 292.468C15.034 292.468 14.706 292.552 14.402 292.72C14.106 292.888 13.87 293.14 13.694 293.476C13.518 293.804 13.43 294.208 13.43 294.688C13.43 295.4 13.61 295.952 13.97 296.344C14.338 296.728 14.798 296.92 15.35 296.92ZM29.0144 291.388L26.9624 298H25.5224L24.1904 293.116L22.8584 298H21.4184L19.3544 291.388H20.7464L22.1264 296.704L23.5304 291.388H24.9584L26.3024 296.68L27.6704 291.388H29.0144Z" fill="#F05133"/>
<path d="M287.232 298L285.312 294.664H284.268V298H282.9V289.66H285.78C286.42 289.66 286.96 289.772 287.4 289.996C287.848 290.22 288.18 290.52 288.396 290.896C288.62 291.272 288.732 291.692 288.732 292.156C288.732 292.7 288.572 293.196 288.252 293.644C287.94 294.084 287.456 294.384 286.8 294.544L288.864 298H287.232ZM284.268 293.572H285.78C286.292 293.572 286.676 293.444 286.932 293.188C287.196 292.932 287.328 292.588 287.328 292.156C287.328 291.724 287.2 291.388 286.944 291.148C286.688 290.9 286.3 290.776 285.78 290.776H284.268V293.572ZM296.542 294.532C296.542 294.78 296.526 295.004 296.494 295.204H291.442C291.482 295.732 291.678 296.156 292.03 296.476C292.382 296.796 292.814 296.956 293.326 296.956C294.062 296.956 294.582 296.648 294.886 296.032H296.362C296.162 296.64 295.798 297.14 295.27 297.532C294.75 297.916 294.102 298.108 293.326 298.108C292.694 298.108 292.126 297.968 291.622 297.688C291.126 297.4 290.734 297 290.446 296.488C290.166 295.968 290.026 295.368 290.026 294.688C290.026 294.008 290.162 293.412 290.434 292.9C290.714 292.38 291.102 291.98 291.598 291.7C292.102 291.42 292.678 291.28 293.326 291.28C293.95 291.28 294.506 291.416 294.994 291.688C295.482 291.96 295.862 292.344 296.134 292.84C296.406 293.328 296.542 293.892 296.542 294.532ZM295.114 294.1C295.106 293.596 294.926 293.192 294.574 292.888C294.222 292.584 293.786 292.432 293.266 292.432C292.794 292.432 292.39 292.584 292.054 292.888C291.718 293.184 291.518 293.588 291.454 294.1H295.114ZM299.256 292.36C299.488 292.056 299.804 291.8 300.204 291.592C300.604 291.384 301.056 291.28 301.56 291.28C302.136 291.28 302.66 291.424 303.132 291.712C303.612 291.992 303.988 292.388 304.26 292.9C304.532 293.412 304.668 294 304.668 294.664C304.668 295.328 304.532 295.924 304.26 296.452C303.988 296.972 303.612 297.38 303.132 297.676C302.66 297.964 302.136 298.108 301.56 298.108C301.056 298.108 300.608 298.008 300.216 297.808C299.824 297.6 299.504 297.344 299.256 297.04V301.144H297.888V291.388H299.256V292.36ZM303.276 294.664C303.276 294.208 303.18 293.816 302.988 293.488C302.804 293.152 302.556 292.9 302.244 292.732C301.94 292.556 301.612 292.468 301.26 292.468C300.916 292.468 300.588 292.556 300.276 292.732C299.972 292.908 299.724 293.164 299.532 293.5C299.348 293.836 299.256 294.232 299.256 294.688C299.256 295.144 299.348 295.544 299.532 295.888C299.724 296.224 299.972 296.48 300.276 296.656C300.588 296.832 300.916 296.92 301.26 296.92C301.612 296.92 301.94 296.832 302.244 296.656C302.556 296.472 302.804 296.208 302.988 295.864C303.18 295.52 303.276 295.12 303.276 294.664ZM307.389 292.348C307.589 292.012 307.853 291.752 308.181 291.568C308.517 291.376 308.913 291.28 309.369 291.28V292.696H309.021C308.485 292.696 308.077 292.832 307.797 293.104C307.525 293.376 307.389 293.848 307.389 294.52V298H306.021V291.388H307.389V292.348ZM316.687 294.532C316.687 294.78 316.671 295.004 316.639 295.204H311.587C311.627 295.732 311.823 296.156 312.175 296.476C312.527 296.796 312.959 296.956 313.471 296.956C314.207 296.956 314.727 296.648 315.031 296.032H316.507C316.307 296.64 315.943 297.14 315.415 297.532C314.895 297.916 314.247 298.108 313.471 298.108C312.839 298.108 312.271 297.968 311.767 297.688C311.271 297.4 310.879 297 310.591 296.488C310.311 295.968 310.171 295.368 310.171 294.688C310.171 294.008 310.307 293.412 310.579 292.9C310.859 292.38 311.247 291.98 311.743 291.7C312.247 291.42 312.823 291.28 313.471 291.28C314.095 291.28 314.651 291.416 315.139 291.688C315.627 291.96 316.007 292.344 316.279 292.84C316.551 293.328 316.687 293.892 316.687 294.532ZM315.259 294.1C315.251 293.596 315.071 293.192 314.719 292.888C314.367 292.584 313.931 292.432 313.411 292.432C312.939 292.432 312.535 292.584 312.199 292.888C311.863 293.184 311.663 293.588 311.599 294.1H315.259ZM320.433 298.108C319.913 298.108 319.445 298.016 319.029 297.832C318.621 297.64 318.297 297.384 318.057 297.064C317.817 296.736 317.689 296.372 317.673 295.972H319.089C319.113 296.252 319.245 296.488 319.485 296.68C319.733 296.864 320.041 296.956 320.409 296.956C320.793 296.956 321.089 296.884 321.297 296.74C321.513 296.588 321.621 296.396 321.621 296.164C321.621 295.916 321.501 295.732 321.261 295.612C321.029 295.492 320.657 295.36 320.145 295.216C319.649 295.08 319.245 294.948 318.933 294.82C318.621 294.692 318.349 294.496 318.117 294.232C317.893 293.968 317.781 293.62 317.781 293.188C317.781 292.836 317.885 292.516 318.093 292.228C318.301 291.932 318.597 291.7 318.981 291.532C319.373 291.364 319.821 291.28 320.325 291.28C321.077 291.28 321.681 291.472 322.137 291.856C322.601 292.232 322.849 292.748 322.881 293.404H321.513C321.489 293.108 321.369 292.872 321.153 292.696C320.937 292.52 320.645 292.432 320.277 292.432C319.917 292.432 319.641 292.5 319.449 292.636C319.257 292.772 319.161 292.952 319.161 293.176C319.161 293.352 319.225 293.5 319.353 293.62C319.481 293.74 319.637 293.836 319.821 293.908C320.005 293.972 320.277 294.056 320.637 294.16C321.117 294.288 321.509 294.42 321.813 294.556C322.125 294.684 322.393 294.876 322.617 295.132C322.841 295.388 322.957 295.728 322.965 296.152C322.965 296.528 322.861 296.864 322.653 297.16C322.445 297.456 322.149 297.688 321.765 297.856C321.389 298.024 320.945 298.108 320.433 298.108ZM330.503 294.532C330.503 294.78 330.487 295.004 330.455 295.204H325.403C325.443 295.732 325.639 296.156 325.991 296.476C326.343 296.796 326.775 296.956 327.287 296.956C328.023 296.956 328.543 296.648 328.847 296.032H330.323C330.123 296.64 329.759 297.14 329.231 297.532C328.711 297.916 328.063 298.108 327.287 298.108C326.655 298.108 326.087 297.968 325.583 297.688C325.087 297.4 324.695 297 324.407 296.488C324.127 295.968 323.987 295.368 323.987 294.688C323.987 294.008 324.123 293.412 324.395 292.9C324.675 292.38 325.063 291.98 325.559 291.7C326.063 291.42 326.639 291.28 327.287 291.28C327.911 291.28 328.467 291.416 328.955 291.688C329.443 291.96 329.823 292.344 330.095 292.84C330.367 293.328 330.503 293.892 330.503 294.532ZM329.075 294.1C329.067 293.596 328.887 293.192 328.535 292.888C328.183 292.584 327.747 292.432 327.227 292.432C326.755 292.432 326.351 292.584 326.015 292.888C325.679 293.184 325.479 293.588 325.415 294.1H329.075ZM335.185 291.28C335.705 291.28 336.169 291.388 336.577 291.604C336.993 291.82 337.317 292.14 337.549 292.564C337.781 292.988 337.897 293.5 337.897 294.1V298H336.541V294.304C336.541 293.712 336.393 293.26 336.097 292.948C335.801 292.628 335.397 292.468 334.885 292.468C334.373 292.468 333.965 292.628 333.661 292.948C333.365 293.26 333.217 293.712 333.217 294.304V298H331.849V291.388H333.217V292.144C333.441 291.872 333.725 291.66 334.069 291.508C334.421 291.356 334.793 291.28 335.185 291.28ZM341.238 292.504V296.164C341.238 296.412 341.294 296.592 341.406 296.704C341.526 296.808 341.726 296.86 342.006 296.86H342.846V298H341.766C341.15 298 340.678 297.856 340.35 297.568C340.022 297.28 339.858 296.812 339.858 296.164V292.504H339.078V291.388H339.858V289.744H341.238V291.388H342.846V292.504H341.238ZM346.507 298.108C345.987 298.108 345.519 298.016 345.103 297.832C344.695 297.64 344.371 297.384 344.131 297.064C343.891 296.736 343.763 296.372 343.747 295.972H345.163C345.187 296.252 345.319 296.488 345.559 296.68C345.807 296.864 346.115 296.956 346.483 296.956C346.867 296.956 347.163 296.884 347.371 296.74C347.587 296.588 347.695 296.396 347.695 296.164C347.695 295.916 347.575 295.732 347.335 295.612C347.103 295.492 346.731 295.36 346.219 295.216C345.723 295.08 345.319 294.948 345.007 294.82C344.695 294.692 344.423 294.496 344.191 294.232C343.967 293.968 343.855 293.62 343.855 293.188C343.855 292.836 343.959 292.516 344.167 292.228C344.375 291.932 344.671 291.7 345.055 291.532C345.447 291.364 345.895 291.28 346.399 291.28C347.151 291.28 347.755 291.472 348.211 291.856C348.675 292.232 348.923 292.748 348.955 293.404H347.587C347.563 293.108 347.443 292.872 347.227 292.696C347.011 292.52 346.719 292.432 346.351 292.432C345.991 292.432 345.715 292.5 345.523 292.636C345.331 292.772 345.235 292.952 345.235 293.176C345.235 293.352 345.299 293.5 345.427 293.62C345.555 293.74 345.711 293.836 345.895 293.908C346.079 293.972 346.351 294.056 346.711 294.16C347.191 294.288 347.583 294.42 347.887 294.556C348.199 294.684 348.467 294.876 348.691 295.132C348.915 295.388 349.031 295.728 349.039 296.152C349.039 296.528 348.935 296.864 348.727 297.16C348.519 297.456 348.223 297.688 347.839 297.856C347.463 298.024 347.019 298.108 346.507 298.108ZM353.178 294.664C353.178 294 353.314 293.412 353.586 292.9C353.866 292.388 354.242 291.992 354.714 291.712C355.194 291.424 355.726 291.28 356.31 291.28C356.742 291.28 357.166 291.376 357.582 291.568C358.006 291.752 358.342 292 358.59 292.312V289.12H359.97V298H358.59V297.004C358.366 297.324 358.054 297.588 357.654 297.796C357.262 298.004 356.81 298.108 356.298 298.108C355.722 298.108 355.194 297.964 354.714 297.676C354.242 297.38 353.866 296.972 353.586 296.452C353.314 295.924 353.178 295.328 353.178 294.664ZM358.59 294.688C358.59 294.232 358.494 293.836 358.302 293.5C358.118 293.164 357.874 292.908 357.57 292.732C357.266 292.556 356.938 292.468 356.586 292.468C356.234 292.468 355.906 292.556 355.602 292.732C355.298 292.9 355.05 293.152 354.858 293.488C354.674 293.816 354.582 294.208 354.582 294.664C354.582 295.12 354.674 295.52 354.858 295.864C355.05 296.208 355.298 296.472 355.602 296.656C355.914 296.832 356.242 296.92 356.586 296.92C356.938 296.92 357.266 296.832 357.57 296.656C357.874 296.48 358.118 296.224 358.302 295.888C358.494 295.544 358.59 295.144 358.59 294.688ZM361.311 294.664C361.311 294 361.447 293.412 361.719 292.9C361.999 292.388 362.375 291.992 362.847 291.712C363.327 291.424 363.855 291.28 364.431 291.28C364.951 291.28 365.403 291.384 365.787 291.592C366.179 291.792 366.491 292.044 366.723 292.348V291.388H368.103V298H366.723V297.016C366.491 297.328 366.175 297.588 365.775 297.796C365.375 298.004 364.919 298.108 364.407 298.108C363.839 298.108 363.319 297.964 362.847 297.676C362.375 297.38 361.999 296.972 361.719 296.452C361.447 295.924 361.311 295.328 361.311 294.664ZM366.723 294.688C366.723 294.232 366.627 293.836 366.435 293.5C366.251 293.164 366.007 292.908 365.703 292.732C365.399 292.556 365.071 292.468 364.719 292.468C364.367 292.468 364.039 292.556 363.735 292.732C363.431 292.9 363.183 293.152 362.991 293.488C362.807 293.816 362.715 294.208 362.715 294.664C362.715 295.12 362.807 295.52 362.991 295.864C363.183 296.208 363.431 296.472 363.735 296.656C364.047 296.832 364.375 296.92 364.719 296.92C365.071 296.92 365.399 296.832 365.703 296.656C366.007 296.48 366.251 296.224 366.435 295.888C366.627 295.544 366.723 295.144 366.723 294.688ZM371.496 292.504V296.164C371.496 296.412 371.552 296.592 371.664 296.704C371.784 296.808 371.984 296.86 372.264 296.86H373.104V298H372.024C371.408 298 370.936 297.856 370.608 297.568C370.28 297.28 370.116 296.812 370.116 296.164V292.504H369.336V291.388H370.116V289.744H371.496V291.388H373.104V292.504H371.496ZM373.909 294.664C373.909 294 374.045 293.412 374.317 292.9C374.597 292.388 374.973 291.992 375.445 291.712C375.925 291.424 376.453 291.28 377.029 291.28C377.549 291.28 378.001 291.384 378.385 291.592C378.777 291.792 379.089 292.044 379.321 292.348V291.388H380.701V298H379.321V297.016C379.089 297.328 378.773 297.588 378.373 297.796C377.973 298.004 377.517 298.108 377.005 298.108C376.437 298.108 375.917 297.964 375.445 297.676C374.973 297.38 374.597 296.972 374.317 296.452C374.045 295.924 373.909 295.328 373.909 294.664ZM379.321 294.688C379.321 294.232 379.225 293.836 379.033 293.5C378.849 293.164 378.605 292.908 378.301 292.732C377.997 292.556 377.669 292.468 377.317 292.468C376.965 292.468 376.637 292.556 376.333 292.732C376.029 292.9 375.781 293.152 375.589 293.488C375.405 293.816 375.313 294.208 375.313 294.664C375.313 295.12 375.405 295.52 375.589 295.864C375.781 296.208 376.029 296.472 376.333 296.656C376.645 296.832 376.973 296.92 377.317 296.92C377.669 296.92 377.997 296.832 378.301 296.656C378.605 296.48 378.849 296.224 379.033 295.888C379.225 295.544 379.321 295.144 379.321 294.688ZM390.055 286.672L386.791 300.1H385.447L388.699 286.672H390.055ZM400.956 294.532C400.956 294.78 400.94 295.004 400.908 295.204H395.856C395.896 295.732 396.092 296.156 396.444 296.476C396.796 296.796 397.228 296.956 397.74 296.956C398.476 296.956 398.996 296.648 399.3 296.032H400.776C400.576 296.64 400.212 297.14 399.684 297.532C399.164 297.916 398.516 298.108 397.74 298.108C397.108 298.108 396.54 297.968 396.036 297.688C395.54 297.4 395.148 297 394.86 296.488C394.58 295.968 394.44 295.368 394.44 294.688C394.44 294.008 394.576 293.412 394.848 292.9C395.128 292.38 395.516 291.98 396.012 291.7C396.516 291.42 397.092 291.28 397.74 291.28C398.364 291.28 398.92 291.416 399.408 291.688C399.896 291.96 400.276 292.344 400.548 292.84C400.82 293.328 400.956 293.892 400.956 294.532ZM399.528 294.1C399.52 293.596 399.34 293.192 398.988 292.888C398.636 292.584 398.2 292.432 397.68 292.432C397.208 292.432 396.804 292.584 396.468 292.888C396.132 293.184 395.932 293.588 395.868 294.1H399.528ZM405.638 291.28C406.158 291.28 406.622 291.388 407.03 291.604C407.446 291.82 407.77 292.14 408.002 292.564C408.234 292.988 408.35 293.5 408.35 294.1V298H406.994V294.304C406.994 293.712 406.846 293.26 406.55 292.948C406.254 292.628 405.85 292.468 405.338 292.468C404.826 292.468 404.418 292.628 404.114 292.948C403.818 293.26 403.67 293.712 403.67 294.304V298H402.302V291.388H403.67V292.144C403.894 291.872 404.178 291.66 404.522 291.508C404.874 291.356 405.246 291.28 405.638 291.28ZM411.691 292.504V296.164C411.691 296.412 411.747 296.592 411.859 296.704C411.979 296.808 412.179 296.86 412.459 296.86H413.299V298H412.219C411.603 298 411.131 297.856 410.803 297.568C410.475 297.28 410.311 296.812 410.311 296.164V292.504H409.531V291.388H410.311V289.744H411.691V291.388H413.299V292.504H411.691ZM415.256 290.512C415.008 290.512 414.8 290.428 414.632 290.26C414.464 290.092 414.38 289.884 414.38 289.636C414.38 289.388 414.464 289.18 414.632 289.012C414.8 288.844 415.008 288.76 415.256 288.76C415.496 288.76 415.7 288.844 415.868 289.012C416.036 289.18 416.12 289.388 416.12 289.636C416.12 289.884 416.036 290.092 415.868 290.26C415.7 290.428 415.496 290.512 415.256 290.512ZM415.928 291.388V298H414.56V291.388H415.928ZM419.32 292.504V296.164C419.32 296.412 419.376 296.592 419.488 296.704C419.608 296.808 419.808 296.86 420.088 296.86H420.928V298H419.848C419.232 298 418.76 297.856 418.432 297.568C418.104 297.28 417.94 296.812 417.94 296.164V292.504H417.16V291.388H417.94V289.744H419.32V291.388H420.928V292.504H419.32ZM428.141 291.388L424.085 301.108H422.669L424.013 297.892L421.409 291.388H422.933L424.793 296.428L426.725 291.388H428.141Z" fill="#F05133"/>
<path d="M251.444 82.688C251.444 82.008 251.58 81.412 251.852 80.9C252.132 80.38 252.516 79.98 253.004 79.7C253.492 79.42 254.052 79.28 254.684 79.28C255.484 79.28 256.144 79.472 256.664 79.856C257.192 80.232 257.548 80.772 257.732 81.476H256.256C256.136 81.148 255.944 80.892 255.68 80.708C255.416 80.524 255.084 80.432 254.684 80.432C254.124 80.432 253.676 80.632 253.34 81.032C253.012 81.424 252.848 81.976 252.848 82.688C252.848 83.4 253.012 83.956 253.34 84.356C253.676 84.756 254.124 84.956 254.684 84.956C255.476 84.956 256 84.608 256.256 83.912H257.732C257.54 84.584 257.18 85.12 256.652 85.52C256.124 85.912 255.468 86.108 254.684 86.108C254.052 86.108 253.492 85.968 253.004 85.688C252.516 85.4 252.132 85 251.852 84.488C251.58 83.968 251.444 83.368 251.444 82.688ZM261.963 86.108C261.339 86.108 260.775 85.968 260.271 85.688C259.767 85.4 259.371 85 259.083 84.488C258.795 83.968 258.651 83.368 258.651 82.688C258.651 82.016 258.799 81.42 259.095 80.9C259.391 80.38 259.795 79.98 260.307 79.7C260.819 79.42 261.391 79.28 262.023 79.28C262.655 79.28 263.227 79.42 263.739 79.7C264.251 79.98 264.655 80.38 264.951 80.9C265.247 81.42 265.395 82.016 265.395 82.688C265.395 83.36 265.243 83.956 264.939 84.476C264.635 84.996 264.219 85.4 263.691 85.688C263.171 85.968 262.595 86.108 261.963 86.108ZM261.963 84.92C262.315 84.92 262.643 84.836 262.947 84.668C263.259 84.5 263.511 84.248 263.703 83.912C263.895 83.576 263.991 83.168 263.991 82.688C263.991 82.208 263.899 81.804 263.715 81.476C263.531 81.14 263.287 80.888 262.983 80.72C262.679 80.552 262.351 80.468 261.999 80.468C261.647 80.468 261.319 80.552 261.015 80.72C260.719 80.888 260.483 81.14 260.307 81.476C260.131 81.804 260.043 82.208 260.043 82.688C260.043 83.4 260.223 83.952 260.583 84.344C260.951 84.728 261.411 84.92 261.963 84.92ZM268.116 77.12V86H266.748V77.12H268.116ZM275.9 79.388V86H274.532V85.22C274.316 85.492 274.032 85.708 273.68 85.868C273.336 86.02 272.968 86.096 272.576 86.096C272.056 86.096 271.588 85.988 271.172 85.772C270.764 85.556 270.44 85.236 270.2 84.812C269.968 84.388 269.852 83.876 269.852 83.276V79.388H271.208V83.072C271.208 83.664 271.356 84.12 271.652 84.44C271.948 84.752 272.352 84.908 272.864 84.908C273.376 84.908 273.78 84.752 274.076 84.44C274.38 84.12 274.532 83.664 274.532 83.072V79.388H275.9ZM285.709 79.28C286.229 79.28 286.693 79.388 287.101 79.604C287.517 79.82 287.841 80.14 288.073 80.564C288.313 80.988 288.433 81.5 288.433 82.1V86H287.077V82.304C287.077 81.712 286.929 81.26 286.633 80.948C286.337 80.628 285.933 80.468 285.421 80.468C284.909 80.468 284.501 80.628 284.197 80.948C283.901 81.26 283.753 81.712 283.753 82.304V86H282.397V82.304C282.397 81.712 282.249 81.26 281.953 80.948C281.657 80.628 281.253 80.468 280.741 80.468C280.229 80.468 279.821 80.628 279.517 80.948C279.221 81.26 279.073 81.712 279.073 82.304V86H277.705V79.388H279.073V80.144C279.297 79.872 279.581 79.66 279.925 79.508C280.269 79.356 280.637 79.28 281.029 79.28C281.557 79.28 282.029 79.392 282.445 79.616C282.861 79.84 283.181 80.164 283.405 80.588C283.605 80.188 283.917 79.872 284.341 79.64C284.765 79.4 285.221 79.28 285.709 79.28ZM293.509 79.28C294.029 79.28 294.493 79.388 294.901 79.604C295.317 79.82 295.641 80.14 295.873 80.564C296.105 80.988 296.221 81.5 296.221 82.1V86H294.865V82.304C294.865 81.712 294.717 81.26 294.421 80.948C294.125 80.628 293.721 80.468 293.209 80.468C292.697 80.468 292.289 80.628 291.985 80.948C291.689 81.26 291.541 81.712 291.541 82.304V86H290.173V79.388H291.541V80.144C291.765 79.872 292.049 79.66 292.393 79.508C292.745 79.356 293.117 79.28 293.509 79.28ZM300.366 86.108C299.846 86.108 299.378 86.016 298.962 85.832C298.554 85.64 298.23 85.384 297.99 85.064C297.75 84.736 297.622 84.372 297.606 83.972H299.022C299.046 84.252 299.178 84.488 299.418 84.68C299.666 84.864 299.974 84.956 300.342 84.956C300.726 84.956 301.022 84.884 301.23 84.74C301.446 84.588 301.554 84.396 301.554 84.164C301.554 83.916 301.434 83.732 301.194 83.612C300.962 83.492 300.59 83.36 300.078 83.216C299.582 83.08 299.178 82.948 298.866 82.82C298.554 82.692 298.282 82.496 298.05 82.232C297.826 81.968 297.714 81.62 297.714 81.188C297.714 80.836 297.818 80.516 298.026 80.228C298.234 79.932 298.53 79.7 298.914 79.532C299.306 79.364 299.754 79.28 300.258 79.28C301.01 79.28 301.614 79.472 302.07 79.856C302.534 80.232 302.782 80.748 302.814 81.404H301.446C301.422 81.108 301.302 80.872 301.086 80.696C300.87 80.52 300.578 80.432 300.21 80.432C299.85 80.432 299.574 80.5 299.382 80.636C299.19 80.772 299.094 80.952 299.094 81.176C299.094 81.352 299.158 81.5 299.286 81.62C299.414 81.74 299.57 81.836 299.754 81.908C299.938 81.972 300.21 82.056 300.57 82.16C301.05 82.288 301.442 82.42 301.746 82.556C302.058 82.684 302.326 82.876 302.55 83.132C302.774 83.388 302.89 83.728 302.898 84.152C302.898 84.528 302.794 84.864 302.586 85.16C302.378 85.456 302.082 85.688 301.698 85.856C301.322 86.024 300.878 86.108 300.366 86.108Z" fill="#F05133"/>
<path d="M165.646 53.3536C165.842 53.5488 166.158 53.5488 166.354 53.3536L169.536 50.1716C169.731 49.9763 169.731 49.6597 169.536 49.4645C169.34 49.2692 169.024 49.2692 168.828 49.4645L166 52.2929L163.172 49.4645C162.976 49.2692 162.66 49.2692 162.464 49.4645C162.269 49.6597 162.269 49.9763 162.464 50.1716L165.646 53.3536ZM165.5 18L165.5 53L166.5 53L166.5 18L165.5 18Z" fill="#55AD47"/>
<path d="M165.646 113.354C165.842 113.549 166.158 113.549 166.354 113.354L169.536 110.172C169.731 109.976 169.731 109.66 169.536 109.464C169.34 109.269 169.024 109.269 168.828 109.464L166 112.293L163.172 109.464C162.976 109.269 162.66 109.269 162.464 109.464C162.269 109.66 162.269 109.976 162.464 110.172L165.646 113.354ZM165.5 78L165.5 113L166.5 113L166.5 78L165.5 78Z" fill="#55AD47"/>
<path d="M69.3536 294.354C69.5488 294.158 69.5488 293.842 69.3536 293.646L66.1716 290.464C65.9763 290.269 65.6597 290.269 65.4645 290.464C65.2692 290.66 65.2692 290.976 65.4645 291.172L68.2929 294L65.4645 296.828C65.2692 297.024 65.2692 297.34 65.4645 297.536C65.6597 297.731 65.9763 297.731 66.1716 297.536L69.3536 294.354ZM34 294.5H69V293.5H34V294.5Z" fill="#55AD47"/>
<path d="M276.354 294.354C276.549 294.158 276.549 293.842 276.354 293.646L273.172 290.464C272.976 290.269 272.66 290.269 272.464 290.464C272.269 290.66 272.269 290.976 272.464 291.172L275.293 294L272.464 296.828C272.269 297.024 272.269 297.34 272.464 297.536C272.66 297.731 272.976 297.731 273.172 297.536L276.354 294.354ZM241 294.5H276V293.5H241V294.5Z" fill="#55AD47"/>
<path d="M234.5 114L234.924 114.265L234.924 114.265L234.5 114ZM260 95.5L254.246 95.023L256.71 100.244L260 95.5ZM234.5 158.5C234.977 158.352 234.977 158.352 234.977 158.352C234.977 158.352 234.977 158.352 234.977 158.351C234.977 158.35 234.976 158.349 234.976 158.348C234.975 158.344 234.973 158.339 234.971 158.332C234.967 158.318 234.96 158.297 234.952 158.27C234.935 158.214 234.91 158.131 234.878 158.021C234.814 157.802 234.72 157.477 234.604 157.059C234.371 156.221 234.049 155.007 233.691 153.503C232.974 150.495 232.115 146.333 231.542 141.715C230.969 137.095 230.685 132.03 231.112 127.215C231.54 122.394 232.678 117.858 234.924 114.265L234.076 113.735C231.716 117.511 230.552 122.221 230.116 127.126C229.68 132.036 229.971 137.175 230.55 141.838C231.128 146.502 231.996 150.702 232.718 153.735C233.079 155.252 233.405 156.478 233.64 157.326C233.758 157.75 233.853 158.079 233.919 158.303C233.952 158.415 233.977 158.501 233.995 158.559C234.004 158.588 234.01 158.61 234.015 158.625C234.017 158.632 234.019 158.638 234.02 158.642C234.021 158.644 234.021 158.645 234.021 158.646C234.022 158.647 234.022 158.647 234.022 158.647C234.022 158.648 234.022 158.648 234.5 158.5ZM234.924 114.265C237.179 110.655 240.986 107.304 245.003 104.47C249.012 101.642 253.191 99.3567 256.153 97.8675L255.704 96.9741C252.717 98.4758 248.49 100.786 244.426 103.653C240.37 106.514 236.436 109.957 234.076 113.735L234.924 114.265Z" fill="#55AD47"/>
</g>
<defs>
<filter id="filter0_d_323_183" x="0.900391" y="4.12012" width="431.24" height="312.88" filterUnits="userSpaceOnUse" color-interpolation-filters="sRGB">
<feFlood flood-opacity="0" result="BackgroundImageFix"/>
<feColorMatrix in="SourceAlpha" type="matrix" values="0 0 0 0 0 0 0 0 0 0 0 0 0 0 0 0 0 0 127 0" result="hardAlpha"/>
<feOffset dy="4"/>
<feGaussianBlur stdDeviation="2"/>
<feComposite in2="hardAlpha" operator="out"/>
<feColorMatrix type="matrix" values="0 0 0 0 0 0 0 0 0 0 0 0 0 0 0 0 0 0 0.25 0"/>
<feBlend mode="normal" in2="BackgroundImageFix" result="effect1_dropShadow_323_183"/>
<feBlend mode="normal" in="SourceGraphic" in2="effect1_dropShadow_323_183" result="shape"/>
</filter>
</defs>
</svg>
