<svg width="456" height="199" viewBox="0 0 456 199" fill="none" xmlns="http://www.w3.org/2000/svg">
<g filter="url(#filter0_d_324_206)">
<path d="M83.104 15L80.864 11.108H79.646V15H78.05V5.27H81.41C82.1567 5.27 82.7867 5.40067 83.3 5.662C83.8227 5.92333 84.21 6.27333 84.462 6.712C84.7233 7.15067 84.854 7.64067 84.854 8.182C84.854 8.81667 84.6673 9.39533 84.294 9.918C83.93 10.4313 83.3653 10.7813 82.6 10.968L85.008 15H83.104ZM79.646 9.834H81.41C82.0073 9.834 82.4553 9.68467 82.754 9.386C83.062 9.08733 83.216 8.686 83.216 8.182C83.216 7.678 83.0667 7.286 82.768 7.006C82.4693 6.71667 82.0167 6.572 81.41 6.572H79.646V9.834ZM90.0737 5.27C91.1097 5.27 92.015 5.47067 92.7897 5.872C93.5737 6.264 94.1757 6.83333 94.5957 7.58C95.025 8.31733 95.2397 9.18067 95.2397 10.17C95.2397 11.1593 95.025 12.018 94.5957 12.746C94.1757 13.474 93.5737 14.034 92.7897 14.426C92.015 14.8087 91.1097 15 90.0737 15H86.8957V5.27H90.0737ZM90.0737 13.698C91.2124 13.698 92.085 13.39 92.6917 12.774C93.2984 12.158 93.6017 11.29 93.6017 10.17C93.6017 9.04067 93.2984 8.15867 92.6917 7.524C92.085 6.88933 91.2124 6.572 90.0737 6.572H88.4917V13.698H90.0737ZM102.029 10.002C102.552 10.0953 102.995 10.3707 103.359 10.828C103.723 11.2853 103.905 11.8033 103.905 12.382C103.905 12.8767 103.775 13.3247 103.513 13.726C103.261 14.118 102.893 14.4307 102.407 14.664C101.922 14.888 101.357 15 100.713 15H96.8215V5.27H100.531C101.194 5.27 101.763 5.382 102.239 5.606C102.715 5.83 103.075 6.13333 103.317 6.516C103.56 6.88933 103.681 7.30933 103.681 7.776C103.681 8.336 103.532 8.80267 103.233 9.176C102.935 9.54933 102.533 9.82467 102.029 10.002ZM98.4175 9.358H100.391C100.914 9.358 101.32 9.24133 101.609 9.008C101.908 8.76533 102.057 8.42 102.057 7.972C102.057 7.53333 101.908 7.19267 101.609 6.95C101.32 6.698 100.914 6.572 100.391 6.572H98.4175V9.358ZM100.573 13.698C101.115 13.698 101.539 13.5673 101.847 13.306C102.155 13.0447 102.309 12.6807 102.309 12.214C102.309 11.738 102.146 11.36 101.819 11.08C101.493 10.8 101.059 10.66 100.517 10.66H98.4175V13.698H100.573ZM115.888 5.27V15H114.292V8.336L111.324 15H110.218L107.236 8.336V15H105.64V5.27H107.362L110.778 12.9L114.18 5.27H115.888ZM121.192 15.098C120.538 15.098 119.95 14.986 119.428 14.762C118.905 14.5287 118.494 14.202 118.196 13.782C117.897 13.362 117.748 12.872 117.748 12.312H119.456C119.493 12.732 119.656 13.0773 119.946 13.348C120.244 13.6187 120.66 13.754 121.192 13.754C121.742 13.754 122.172 13.6233 122.48 13.362C122.788 13.0913 122.942 12.746 122.942 12.326C122.942 11.9993 122.844 11.7333 122.648 11.528C122.461 11.3227 122.223 11.164 121.934 11.052C121.654 10.94 121.262 10.8187 120.758 10.688C120.123 10.52 119.605 10.352 119.204 10.184C118.812 10.0067 118.476 9.736 118.196 9.372C117.916 9.008 117.776 8.52267 117.776 7.916C117.776 7.356 117.916 6.866 118.196 6.446C118.476 6.026 118.868 5.704 119.372 5.48C119.876 5.256 120.459 5.144 121.122 5.144C122.064 5.144 122.834 5.382 123.432 5.858C124.038 6.32467 124.374 6.96867 124.44 7.79H122.676C122.648 7.43533 122.48 7.132 122.172 6.88C121.864 6.628 121.458 6.502 120.954 6.502C120.496 6.502 120.123 6.61867 119.834 6.852C119.544 7.08533 119.4 7.42133 119.4 7.86C119.4 8.15867 119.488 8.406 119.666 8.602C119.852 8.78867 120.086 8.938 120.366 9.05C120.646 9.162 121.028 9.28333 121.514 9.414C122.158 9.59133 122.68 9.76867 123.082 9.946C123.492 10.1233 123.838 10.3987 124.118 10.772C124.407 11.136 124.552 11.626 124.552 12.242C124.552 12.7367 124.416 13.2033 124.146 13.642C123.884 14.0807 123.497 14.4353 122.984 14.706C122.48 14.9673 121.882 15.098 121.192 15.098Z" fill="#157B1C"/>
<path d="M344.298 5.27V15H342.702V8.336L339.734 15H338.628L335.646 8.336V15H334.05V5.27H335.772L339.188 12.9L342.59 5.27H344.298ZM349.742 15.126C349.014 15.126 348.356 14.9627 347.768 14.636C347.18 14.3 346.718 13.8333 346.382 13.236C346.046 12.6293 345.878 11.9293 345.878 11.136C345.878 10.352 346.05 9.65667 346.396 9.05C346.741 8.44333 347.212 7.97667 347.81 7.65C348.407 7.32333 349.074 7.16 349.812 7.16C350.549 7.16 351.216 7.32333 351.814 7.65C352.411 7.97667 352.882 8.44333 353.228 9.05C353.573 9.65667 353.746 10.352 353.746 11.136C353.746 11.92 353.568 12.6153 353.214 13.222C352.859 13.8287 352.374 14.3 351.758 14.636C351.151 14.9627 350.479 15.126 349.742 15.126ZM349.742 13.74C350.152 13.74 350.535 13.642 350.89 13.446C351.254 13.25 351.548 12.956 351.772 12.564C351.996 12.172 352.108 11.696 352.108 11.136C352.108 10.576 352 10.1047 351.786 9.722C351.571 9.33 351.286 9.036 350.932 8.84C350.577 8.644 350.194 8.546 349.784 8.546C349.373 8.546 348.99 8.644 348.636 8.84C348.29 9.036 348.015 9.33 347.81 9.722C347.604 10.1047 347.502 10.576 347.502 11.136C347.502 11.9667 347.712 12.6107 348.132 13.068C348.561 13.516 349.098 13.74 349.742 13.74ZM359.215 7.16C359.822 7.16 360.363 7.286 360.839 7.538C361.325 7.79 361.703 8.16333 361.973 8.658C362.244 9.15267 362.379 9.75 362.379 10.45V15H360.797V10.688C360.797 9.99733 360.625 9.47 360.279 9.106C359.934 8.73267 359.463 8.546 358.865 8.546C358.268 8.546 357.792 8.73267 357.437 9.106C357.092 9.47 356.919 9.99733 356.919 10.688V15H355.323V7.286H356.919V8.168C357.181 7.85067 357.512 7.60333 357.913 7.426C358.324 7.24867 358.758 7.16 359.215 7.16ZM367.523 7.16C368.121 7.16 368.648 7.28133 369.105 7.524C369.572 7.75733 369.936 8.05133 370.197 8.406V7.286H371.807V15.126C371.807 15.8353 371.658 16.4653 371.359 17.016C371.061 17.576 370.627 18.0147 370.057 18.332C369.497 18.6493 368.825 18.808 368.041 18.808C366.996 18.808 366.128 18.5607 365.437 18.066C364.747 17.5807 364.355 16.918 364.261 16.078H365.843C365.965 16.4793 366.221 16.8013 366.613 17.044C367.015 17.296 367.491 17.422 368.041 17.422C368.685 17.422 369.203 17.226 369.595 16.834C369.997 16.442 370.197 15.8727 370.197 15.126V13.838C369.927 14.202 369.558 14.51 369.091 14.762C368.634 15.0047 368.111 15.126 367.523 15.126C366.851 15.126 366.235 14.958 365.675 14.622C365.125 14.2767 364.686 13.8007 364.359 13.194C364.042 12.578 363.883 11.8827 363.883 11.108C363.883 10.3333 364.042 9.64733 364.359 9.05C364.686 8.45267 365.125 7.99067 365.675 7.664C366.235 7.328 366.851 7.16 367.523 7.16ZM370.197 11.136C370.197 10.604 370.085 10.142 369.861 9.75C369.647 9.358 369.362 9.05933 369.007 8.854C368.653 8.64867 368.27 8.546 367.859 8.546C367.449 8.546 367.066 8.64867 366.711 8.854C366.357 9.05 366.067 9.344 365.843 9.736C365.629 10.1187 365.521 10.576 365.521 11.108C365.521 11.64 365.629 12.1067 365.843 12.508C366.067 12.9093 366.357 13.2173 366.711 13.432C367.075 13.6373 367.458 13.74 367.859 13.74C368.27 13.74 368.653 13.6373 369.007 13.432C369.362 13.2267 369.647 12.928 369.861 12.536C370.085 12.1347 370.197 11.668 370.197 11.136ZM377.25 15.126C376.522 15.126 375.864 14.9627 375.276 14.636C374.688 14.3 374.226 13.8333 373.89 13.236C373.554 12.6293 373.386 11.9293 373.386 11.136C373.386 10.352 373.558 9.65667 373.904 9.05C374.249 8.44333 374.72 7.97667 375.318 7.65C375.915 7.32333 376.582 7.16 377.32 7.16C378.057 7.16 378.724 7.32333 379.322 7.65C379.919 7.97667 380.39 8.44333 380.736 9.05C381.081 9.65667 381.254 10.352 381.254 11.136C381.254 11.92 381.076 12.6153 380.722 13.222C380.367 13.8287 379.882 14.3 379.266 14.636C378.659 14.9627 377.987 15.126 377.25 15.126ZM377.25 13.74C377.66 13.74 378.043 13.642 378.398 13.446C378.762 13.25 379.056 12.956 379.28 12.564C379.504 12.172 379.616 11.696 379.616 11.136C379.616 10.576 379.508 10.1047 379.294 9.722C379.079 9.33 378.794 9.036 378.44 8.84C378.085 8.644 377.702 8.546 377.292 8.546C376.881 8.546 376.498 8.644 376.144 8.84C375.798 9.036 375.523 9.33 375.318 9.722C375.112 10.1047 375.01 10.576 375.01 11.136C375.01 11.9667 375.22 12.6107 375.64 13.068C376.069 13.516 376.606 13.74 377.25 13.74ZM386.009 5.27C387.045 5.27 387.951 5.47067 388.725 5.872C389.509 6.264 390.111 6.83333 390.531 7.58C390.961 8.31733 391.175 9.18067 391.175 10.17C391.175 11.1593 390.961 12.018 390.531 12.746C390.111 13.474 389.509 14.034 388.725 14.426C387.951 14.8087 387.045 15 386.009 15H382.831V5.27H386.009ZM386.009 13.698C387.148 13.698 388.021 13.39 388.627 12.774C389.234 12.158 389.537 11.29 389.537 10.17C389.537 9.04067 389.234 8.15867 388.627 7.524C388.021 6.88933 387.148 6.572 386.009 6.572H384.427V13.698H386.009ZM397.965 10.002C398.488 10.0953 398.931 10.3707 399.295 10.828C399.659 11.2853 399.841 11.8033 399.841 12.382C399.841 12.8767 399.71 13.3247 399.449 13.726C399.197 14.118 398.828 14.4307 398.343 14.664C397.858 14.888 397.293 15 396.649 15H392.757V5.27H396.467C397.13 5.27 397.699 5.382 398.175 5.606C398.651 5.83 399.01 6.13333 399.253 6.516C399.496 6.88933 399.617 7.30933 399.617 7.776C399.617 8.336 399.468 8.80267 399.169 9.176C398.87 9.54933 398.469 9.82467 397.965 10.002ZM394.353 9.358H396.327C396.85 9.358 397.256 9.24133 397.545 9.008C397.844 8.76533 397.993 8.42 397.993 7.972C397.993 7.53333 397.844 7.19267 397.545 6.95C397.256 6.698 396.85 6.572 396.327 6.572H394.353V9.358ZM396.509 13.698C397.05 13.698 397.475 13.5673 397.783 13.306C398.091 13.0447 398.245 12.6807 398.245 12.214C398.245 11.738 398.082 11.36 397.755 11.08C397.428 10.8 396.994 10.66 396.453 10.66H394.353V13.698H396.509Z" fill="#157B1C"/>
<rect x="61" y="106" width="76.8571" height="28" stroke="#55AD47" stroke-width="2"/>
<rect x="313" y="106" width="76.8571" height="28" stroke="#55AD47" stroke-width="2"/>
<rect x="35" y="74" width="127" height="80" stroke="#55AD47" stroke-width="2"/>
<rect x="287" y="74" width="127" height="80" stroke="#55AD47" stroke-width="2"/>
<rect x="21" y="53" width="160" height="116" stroke="#55AD47" stroke-width="2"/>
<rect x="273" y="53" width="160" height="116" stroke="#55AD47" stroke-width="2"/>
<rect x="5" y="33" width="194" height="157" stroke="#55AD47" stroke-width="2"/>
<rect x="257" y="33" width="194" height="157" stroke="#55AD47" stroke-width="2"/>
<path d="M72.444 120.688C72.444 120.008 72.58 119.412 72.852 118.9C73.132 118.38 73.516 117.98 74.004 117.7C74.492 117.42 75.052 117.28 75.684 117.28C76.484 117.28 77.144 117.472 77.664 117.856C78.192 118.232 78.548 118.772 78.732 119.476H77.256C77.136 119.148 76.944 118.892 76.68 118.708C76.416 118.524 76.084 118.432 75.684 118.432C75.124 118.432 74.676 118.632 74.34 119.032C74.012 119.424 73.848 119.976 73.848 120.688C73.848 121.4 74.012 121.956 74.34 122.356C74.676 122.756 75.124 122.956 75.684 122.956C76.476 122.956 77 122.608 77.256 121.912H78.732C78.54 122.584 78.18 123.12 77.652 123.52C77.124 123.912 76.468 124.108 75.684 124.108C75.052 124.108 74.492 123.968 74.004 123.688C73.516 123.4 73.132 123 72.852 122.488C72.58 121.968 72.444 121.368 72.444 120.688ZM82.9633 124.108C82.3393 124.108 81.7753 123.968 81.2713 123.688C80.7673 123.4 80.3713 123 80.0833 122.488C79.7953 121.968 79.6513 121.368 79.6513 120.688C79.6513 120.016 79.7993 119.42 80.0953 118.9C80.3913 118.38 80.7953 117.98 81.3073 117.7C81.8193 117.42 82.3913 117.28 83.0233 117.28C83.6553 117.28 84.2273 117.42 84.7393 117.7C85.2513 117.98 85.6553 118.38 85.9513 118.9C86.2473 119.42 86.3953 120.016 86.3953 120.688C86.3953 121.36 86.2433 121.956 85.9393 122.476C85.6353 122.996 85.2193 123.4 84.6913 123.688C84.1713 123.968 83.5953 124.108 82.9633 124.108ZM82.9633 122.92C83.3153 122.92 83.6433 122.836 83.9473 122.668C84.2593 122.5 84.5113 122.248 84.7033 121.912C84.8953 121.576 84.9913 121.168 84.9913 120.688C84.9913 120.208 84.8993 119.804 84.7153 119.476C84.5313 119.14 84.2873 118.888 83.9833 118.72C83.6793 118.552 83.3513 118.468 82.9993 118.468C82.6473 118.468 82.3193 118.552 82.0153 118.72C81.7193 118.888 81.4833 119.14 81.3073 119.476C81.1313 119.804 81.0433 120.208 81.0433 120.688C81.0433 121.4 81.2233 121.952 81.5833 122.344C81.9513 122.728 82.4113 122.92 82.9633 122.92ZM89.1157 115.12V124H87.7477V115.12H89.1157ZM96.8997 117.388V124H95.5317V123.22C95.3157 123.492 95.0317 123.708 94.6797 123.868C94.3357 124.02 93.9677 124.096 93.5757 124.096C93.0557 124.096 92.5877 123.988 92.1717 123.772C91.7637 123.556 91.4397 123.236 91.1997 122.812C90.9677 122.388 90.8517 121.876 90.8517 121.276V117.388H92.2077V121.072C92.2077 121.664 92.3557 122.12 92.6517 122.44C92.9477 122.752 93.3517 122.908 93.8637 122.908C94.3757 122.908 94.7797 122.752 95.0757 122.44C95.3797 122.12 95.5317 121.664 95.5317 121.072V117.388H96.8997ZM106.709 117.28C107.229 117.28 107.693 117.388 108.101 117.604C108.517 117.82 108.841 118.14 109.073 118.564C109.313 118.988 109.433 119.5 109.433 120.1V124H108.077V120.304C108.077 119.712 107.929 119.26 107.633 118.948C107.337 118.628 106.933 118.468 106.421 118.468C105.909 118.468 105.501 118.628 105.197 118.948C104.901 119.26 104.753 119.712 104.753 120.304V124H103.397V120.304C103.397 119.712 103.249 119.26 102.953 118.948C102.657 118.628 102.253 118.468 101.741 118.468C101.229 118.468 100.821 118.628 100.517 118.948C100.221 119.26 100.073 119.712 100.073 120.304V124H98.7047V117.388H100.073V118.144C100.297 117.872 100.581 117.66 100.925 117.508C101.269 117.356 101.637 117.28 102.029 117.28C102.557 117.28 103.029 117.392 103.445 117.616C103.861 117.84 104.181 118.164 104.405 118.588C104.605 118.188 104.917 117.872 105.341 117.64C105.765 117.4 106.221 117.28 106.709 117.28ZM114.509 117.28C115.029 117.28 115.493 117.388 115.901 117.604C116.317 117.82 116.641 118.14 116.873 118.564C117.105 118.988 117.221 119.5 117.221 120.1V124H115.865V120.304C115.865 119.712 115.717 119.26 115.421 118.948C115.125 118.628 114.721 118.468 114.209 118.468C113.697 118.468 113.289 118.628 112.985 118.948C112.689 119.26 112.541 119.712 112.541 120.304V124H111.173V117.388H112.541V118.144C112.765 117.872 113.049 117.66 113.393 117.508C113.745 117.356 114.117 117.28 114.509 117.28ZM121.366 124.108C120.846 124.108 120.378 124.016 119.962 123.832C119.554 123.64 119.23 123.384 118.99 123.064C118.75 122.736 118.622 122.372 118.606 121.972H120.022C120.046 122.252 120.178 122.488 120.418 122.68C120.666 122.864 120.974 122.956 121.342 122.956C121.726 122.956 122.022 122.884 122.23 122.74C122.446 122.588 122.554 122.396 122.554 122.164C122.554 121.916 122.434 121.732 122.194 121.612C121.962 121.492 121.59 121.36 121.078 121.216C120.582 121.08 120.178 120.948 119.866 120.82C119.554 120.692 119.282 120.496 119.05 120.232C118.826 119.968 118.714 119.62 118.714 119.188C118.714 118.836 118.818 118.516 119.026 118.228C119.234 117.932 119.53 117.7 119.914 117.532C120.306 117.364 120.754 117.28 121.258 117.28C122.01 117.28 122.614 117.472 123.07 117.856C123.534 118.232 123.782 118.748 123.814 119.404H122.446C122.422 119.108 122.302 118.872 122.086 118.696C121.87 118.52 121.578 118.432 121.21 118.432C120.85 118.432 120.574 118.5 120.382 118.636C120.19 118.772 120.094 118.952 120.094 119.176C120.094 119.352 120.158 119.5 120.286 119.62C120.414 119.74 120.57 119.836 120.754 119.908C120.938 119.972 121.21 120.056 121.57 120.16C122.05 120.288 122.442 120.42 122.746 120.556C123.058 120.684 123.326 120.876 123.55 121.132C123.774 121.388 123.89 121.728 123.898 122.152C123.898 122.528 123.794 122.864 123.586 123.16C123.378 123.456 123.082 123.688 122.698 123.856C122.322 124.024 121.878 124.108 121.366 124.108Z" fill="#F05133"/>
<path d="M338.808 115.66V116.776H335.268V119.236H338.028V120.352H335.268V124H333.9V115.66H338.808ZM340.772 116.512C340.524 116.512 340.316 116.428 340.148 116.26C339.98 116.092 339.896 115.884 339.896 115.636C339.896 115.388 339.98 115.18 340.148 115.012C340.316 114.844 340.524 114.76 340.772 114.76C341.012 114.76 341.216 114.844 341.384 115.012C341.552 115.18 341.636 115.388 341.636 115.636C341.636 115.884 341.552 116.092 341.384 116.26C341.216 116.428 341.012 116.512 340.772 116.512ZM341.444 117.388V124H340.076V117.388H341.444ZM349.3 120.532C349.3 120.78 349.284 121.004 349.252 121.204H344.2C344.24 121.732 344.436 122.156 344.788 122.476C345.14 122.796 345.572 122.956 346.084 122.956C346.82 122.956 347.34 122.648 347.644 122.032H349.12C348.92 122.64 348.556 123.14 348.028 123.532C347.508 123.916 346.86 124.108 346.084 124.108C345.452 124.108 344.884 123.968 344.38 123.688C343.884 123.4 343.492 123 343.204 122.488C342.924 121.968 342.784 121.368 342.784 120.688C342.784 120.008 342.92 119.412 343.192 118.9C343.472 118.38 343.86 117.98 344.356 117.7C344.86 117.42 345.436 117.28 346.084 117.28C346.708 117.28 347.264 117.416 347.752 117.688C348.24 117.96 348.62 118.344 348.892 118.84C349.164 119.328 349.3 119.892 349.3 120.532ZM347.872 120.1C347.864 119.596 347.684 119.192 347.332 118.888C346.98 118.584 346.544 118.432 346.024 118.432C345.552 118.432 345.148 118.584 344.812 118.888C344.476 119.184 344.276 119.588 344.212 120.1H347.872ZM352.014 115.12V124H350.646V115.12H352.014ZM353.354 120.664C353.354 120 353.49 119.412 353.762 118.9C354.042 118.388 354.418 117.992 354.89 117.712C355.37 117.424 355.902 117.28 356.486 117.28C356.918 117.28 357.342 117.376 357.758 117.568C358.182 117.752 358.518 118 358.766 118.312V115.12H360.146V124H358.766V123.004C358.542 123.324 358.23 123.588 357.83 123.796C357.438 124.004 356.986 124.108 356.474 124.108C355.898 124.108 355.37 123.964 354.89 123.676C354.418 123.38 354.042 122.972 353.762 122.452C353.49 121.924 353.354 121.328 353.354 120.664ZM358.766 120.688C358.766 120.232 358.67 119.836 358.478 119.5C358.294 119.164 358.05 118.908 357.746 118.732C357.442 118.556 357.114 118.468 356.762 118.468C356.41 118.468 356.082 118.556 355.778 118.732C355.474 118.9 355.226 119.152 355.034 119.488C354.85 119.816 354.758 120.208 354.758 120.664C354.758 121.12 354.85 121.52 355.034 121.864C355.226 122.208 355.474 122.472 355.778 122.656C356.09 122.832 356.418 122.92 356.762 122.92C357.114 122.92 357.442 122.832 357.746 122.656C358.05 122.48 358.294 122.224 358.478 121.888C358.67 121.544 358.766 121.144 358.766 120.688ZM364.343 124.108C363.823 124.108 363.355 124.016 362.939 123.832C362.531 123.64 362.207 123.384 361.967 123.064C361.727 122.736 361.599 122.372 361.583 121.972H362.999C363.023 122.252 363.155 122.488 363.395 122.68C363.643 122.864 363.951 122.956 364.319 122.956C364.703 122.956 364.999 122.884 365.207 122.74C365.423 122.588 365.531 122.396 365.531 122.164C365.531 121.916 365.411 121.732 365.171 121.612C364.939 121.492 364.567 121.36 364.055 121.216C363.559 121.08 363.155 120.948 362.843 120.82C362.531 120.692 362.259 120.496 362.027 120.232C361.803 119.968 361.691 119.62 361.691 119.188C361.691 118.836 361.795 118.516 362.003 118.228C362.211 117.932 362.507 117.7 362.891 117.532C363.283 117.364 363.731 117.28 364.235 117.28C364.987 117.28 365.591 117.472 366.047 117.856C366.511 118.232 366.759 118.748 366.791 119.404H365.423C365.399 119.108 365.279 118.872 365.063 118.696C364.847 118.52 364.555 118.432 364.187 118.432C363.827 118.432 363.551 118.5 363.359 118.636C363.167 118.772 363.071 118.952 363.071 119.176C363.071 119.352 363.135 119.5 363.263 119.62C363.391 119.74 363.547 119.836 363.731 119.908C363.915 119.972 364.187 120.056 364.547 120.16C365.027 120.288 365.419 120.42 365.723 120.556C366.035 120.684 366.303 120.876 366.527 121.132C366.751 121.388 366.867 121.728 366.875 122.152C366.875 122.528 366.771 122.864 366.563 123.16C366.355 123.456 366.059 123.688 365.675 123.856C365.299 124.024 364.855 124.108 364.343 124.108Z" fill="#F05133"/>
<path d="M91.232 95L89.312 91.664H88.268V95H86.9V86.66H89.78C90.42 86.66 90.96 86.772 91.4 86.996C91.848 87.22 92.18 87.52 92.396 87.896C92.62 88.272 92.732 88.692 92.732 89.156C92.732 89.7 92.572 90.196 92.252 90.644C91.94 91.084 91.456 91.384 90.8 91.544L92.864 95H91.232ZM88.268 90.572H89.78C90.292 90.572 90.676 90.444 90.932 90.188C91.196 89.932 91.328 89.588 91.328 89.156C91.328 88.724 91.2 88.388 90.944 88.148C90.688 87.9 90.3 87.776 89.78 87.776H88.268V90.572ZM97.35 95.108C96.726 95.108 96.162 94.968 95.658 94.688C95.154 94.4 94.758 94 94.47 93.488C94.182 92.968 94.038 92.368 94.038 91.688C94.038 91.016 94.186 90.42 94.482 89.9C94.778 89.38 95.182 88.98 95.694 88.7C96.206 88.42 96.778 88.28 97.41 88.28C98.042 88.28 98.614 88.42 99.126 88.7C99.638 88.98 100.042 89.38 100.338 89.9C100.634 90.42 100.782 91.016 100.782 91.688C100.782 92.36 100.63 92.956 100.326 93.476C100.022 93.996 99.606 94.4 99.078 94.688C98.558 94.968 97.982 95.108 97.35 95.108ZM97.35 93.92C97.702 93.92 98.03 93.836 98.334 93.668C98.646 93.5 98.898 93.248 99.09 92.912C99.282 92.576 99.378 92.168 99.378 91.688C99.378 91.208 99.286 90.804 99.102 90.476C98.918 90.14 98.674 89.888 98.37 89.72C98.066 89.552 97.738 89.468 97.386 89.468C97.034 89.468 96.706 89.552 96.402 89.72C96.106 89.888 95.87 90.14 95.694 90.476C95.518 90.804 95.43 91.208 95.43 91.688C95.43 92.4 95.61 92.952 95.97 93.344C96.338 93.728 96.798 93.92 97.35 93.92ZM111.014 88.388L108.962 95H107.522L106.19 90.116L104.858 95H103.418L101.354 88.388H102.746L104.126 93.704L105.53 88.388H106.958L108.302 93.68L109.67 88.388H111.014ZM114.437 95.108C113.917 95.108 113.449 95.016 113.033 94.832C112.625 94.64 112.301 94.384 112.061 94.064C111.821 93.736 111.693 93.372 111.677 92.972H113.093C113.117 93.252 113.249 93.488 113.489 93.68C113.737 93.864 114.045 93.956 114.413 93.956C114.797 93.956 115.093 93.884 115.301 93.74C115.517 93.588 115.625 93.396 115.625 93.164C115.625 92.916 115.505 92.732 115.265 92.612C115.033 92.492 114.661 92.36 114.149 92.216C113.653 92.08 113.249 91.948 112.937 91.82C112.625 91.692 112.353 91.496 112.121 91.232C111.897 90.968 111.785 90.62 111.785 90.188C111.785 89.836 111.889 89.516 112.097 89.228C112.305 88.932 112.601 88.7 112.985 88.532C113.377 88.364 113.825 88.28 114.329 88.28C115.081 88.28 115.685 88.472 116.141 88.856C116.605 89.232 116.853 89.748 116.885 90.404H115.517C115.493 90.108 115.373 89.872 115.157 89.696C114.941 89.52 114.649 89.432 114.281 89.432C113.921 89.432 113.645 89.5 113.453 89.636C113.261 89.772 113.165 89.952 113.165 90.176C113.165 90.352 113.229 90.5 113.357 90.62C113.485 90.74 113.641 90.836 113.825 90.908C114.009 90.972 114.281 91.056 114.641 91.16C115.121 91.288 115.513 91.42 115.817 91.556C116.129 91.684 116.397 91.876 116.621 92.132C116.845 92.388 116.961 92.728 116.969 93.152C116.969 93.528 116.865 93.864 116.657 94.16C116.449 94.456 116.153 94.688 115.769 94.856C115.393 95.024 114.949 95.108 114.437 95.108Z" fill="#F05133"/>
<path d="M319.624 83.66C320.512 83.66 321.288 83.832 321.952 84.176C322.624 84.512 323.14 85 323.5 85.64C323.868 86.272 324.052 87.012 324.052 87.86C324.052 88.708 323.868 89.444 323.5 90.068C323.14 90.692 322.624 91.172 321.952 91.508C321.288 91.836 320.512 92 319.624 92H316.9V83.66H319.624ZM319.624 90.884C320.6 90.884 321.348 90.62 321.868 90.092C322.388 89.564 322.648 88.82 322.648 87.86C322.648 86.892 322.388 86.136 321.868 85.592C321.348 85.048 320.6 84.776 319.624 84.776H318.268V90.884H319.624ZM328.276 92.108C327.652 92.108 327.088 91.968 326.584 91.688C326.08 91.4 325.684 91 325.396 90.488C325.108 89.968 324.964 89.368 324.964 88.688C324.964 88.016 325.112 87.42 325.408 86.9C325.704 86.38 326.108 85.98 326.62 85.7C327.132 85.42 327.704 85.28 328.336 85.28C328.968 85.28 329.54 85.42 330.052 85.7C330.564 85.98 330.968 86.38 331.264 86.9C331.56 87.42 331.708 88.016 331.708 88.688C331.708 89.36 331.556 89.956 331.252 90.476C330.948 90.996 330.532 91.4 330.004 91.688C329.484 91.968 328.908 92.108 328.276 92.108ZM328.276 90.92C328.628 90.92 328.956 90.836 329.26 90.668C329.572 90.5 329.824 90.248 330.016 89.912C330.208 89.576 330.304 89.168 330.304 88.688C330.304 88.208 330.212 87.804 330.028 87.476C329.844 87.14 329.6 86.888 329.296 86.72C328.992 86.552 328.664 86.468 328.312 86.468C327.96 86.468 327.632 86.552 327.328 86.72C327.032 86.888 326.796 87.14 326.62 87.476C326.444 87.804 326.356 88.208 326.356 88.688C326.356 89.4 326.536 89.952 326.896 90.344C327.264 90.728 327.724 90.92 328.276 90.92ZM332.604 88.688C332.604 88.008 332.74 87.412 333.012 86.9C333.292 86.38 333.676 85.98 334.164 85.7C334.652 85.42 335.212 85.28 335.844 85.28C336.644 85.28 337.304 85.472 337.824 85.856C338.352 86.232 338.708 86.772 338.892 87.476H337.416C337.296 87.148 337.104 86.892 336.84 86.708C336.576 86.524 336.244 86.432 335.844 86.432C335.284 86.432 334.836 86.632 334.5 87.032C334.172 87.424 334.008 87.976 334.008 88.688C334.008 89.4 334.172 89.956 334.5 90.356C334.836 90.756 335.284 90.956 335.844 90.956C336.636 90.956 337.16 90.608 337.416 89.912H338.892C338.7 90.584 338.34 91.12 337.812 91.52C337.284 91.912 336.628 92.108 335.844 92.108C335.212 92.108 334.652 91.968 334.164 91.688C333.676 91.4 333.292 91 333.012 90.488C332.74 89.968 332.604 89.368 332.604 88.688ZM346.243 85.388V92H344.875V91.22C344.659 91.492 344.375 91.708 344.023 91.868C343.679 92.02 343.311 92.096 342.919 92.096C342.399 92.096 341.931 91.988 341.515 91.772C341.107 91.556 340.783 91.236 340.543 90.812C340.311 90.388 340.195 89.876 340.195 89.276V85.388H341.551V89.072C341.551 89.664 341.699 90.12 341.995 90.44C342.291 90.752 342.695 90.908 343.207 90.908C343.719 90.908 344.123 90.752 344.419 90.44C344.723 90.12 344.875 89.664 344.875 89.072V85.388H346.243ZM356.052 85.28C356.572 85.28 357.036 85.388 357.444 85.604C357.86 85.82 358.184 86.14 358.416 86.564C358.656 86.988 358.776 87.5 358.776 88.1V92H357.42V88.304C357.42 87.712 357.272 87.26 356.976 86.948C356.68 86.628 356.276 86.468 355.764 86.468C355.252 86.468 354.844 86.628 354.54 86.948C354.244 87.26 354.096 87.712 354.096 88.304V92H352.74V88.304C352.74 87.712 352.592 87.26 352.296 86.948C352 86.628 351.596 86.468 351.084 86.468C350.572 86.468 350.164 86.628 349.86 86.948C349.564 87.26 349.416 87.712 349.416 88.304V92H348.048V85.388H349.416V86.144C349.64 85.872 349.924 85.66 350.268 85.508C350.612 85.356 350.98 85.28 351.372 85.28C351.9 85.28 352.372 85.392 352.788 85.616C353.204 85.84 353.524 86.164 353.748 86.588C353.948 86.188 354.26 85.872 354.684 85.64C355.108 85.4 355.564 85.28 356.052 85.28ZM366.577 88.532C366.577 88.78 366.561 89.004 366.529 89.204H361.477C361.517 89.732 361.713 90.156 362.065 90.476C362.417 90.796 362.849 90.956 363.361 90.956C364.097 90.956 364.617 90.648 364.921 90.032H366.397C366.197 90.64 365.833 91.14 365.305 91.532C364.785 91.916 364.137 92.108 363.361 92.108C362.729 92.108 362.161 91.968 361.657 91.688C361.161 91.4 360.769 91 360.481 90.488C360.201 89.968 360.061 89.368 360.061 88.688C360.061 88.008 360.197 87.412 360.469 86.9C360.749 86.38 361.137 85.98 361.633 85.7C362.137 85.42 362.713 85.28 363.361 85.28C363.985 85.28 364.541 85.416 365.029 85.688C365.517 85.96 365.897 86.344 366.169 86.84C366.441 87.328 366.577 87.892 366.577 88.532ZM365.149 88.1C365.141 87.596 364.961 87.192 364.609 86.888C364.257 86.584 363.821 86.432 363.301 86.432C362.829 86.432 362.425 86.584 362.089 86.888C361.753 87.184 361.553 87.588 361.489 88.1H365.149ZM371.259 85.28C371.779 85.28 372.243 85.388 372.651 85.604C373.067 85.82 373.391 86.14 373.623 86.564C373.855 86.988 373.971 87.5 373.971 88.1V92H372.615V88.304C372.615 87.712 372.467 87.26 372.171 86.948C371.875 86.628 371.471 86.468 370.959 86.468C370.447 86.468 370.039 86.628 369.735 86.948C369.439 87.26 369.291 87.712 369.291 88.304V92H367.923V85.388H369.291V86.144C369.515 85.872 369.799 85.66 370.143 85.508C370.495 85.356 370.867 85.28 371.259 85.28ZM377.312 86.504V90.164C377.312 90.412 377.368 90.592 377.48 90.704C377.6 90.808 377.8 90.86 378.08 90.86H378.92V92H377.84C377.224 92 376.752 91.856 376.424 91.568C376.096 91.28 375.932 90.812 375.932 90.164V86.504H375.152V85.388H375.932V83.744H377.312V85.388H378.92V86.504H377.312ZM382.581 92.108C382.061 92.108 381.593 92.016 381.177 91.832C380.769 91.64 380.445 91.384 380.205 91.064C379.965 90.736 379.837 90.372 379.821 89.972H381.237C381.261 90.252 381.393 90.488 381.633 90.68C381.881 90.864 382.189 90.956 382.557 90.956C382.941 90.956 383.237 90.884 383.445 90.74C383.661 90.588 383.769 90.396 383.769 90.164C383.769 89.916 383.649 89.732 383.409 89.612C383.177 89.492 382.805 89.36 382.293 89.216C381.797 89.08 381.393 88.948 381.081 88.82C380.769 88.692 380.497 88.496 380.265 88.232C380.041 87.968 379.929 87.62 379.929 87.188C379.929 86.836 380.033 86.516 380.241 86.228C380.449 85.932 380.745 85.7 381.129 85.532C381.521 85.364 381.969 85.28 382.473 85.28C383.225 85.28 383.829 85.472 384.285 85.856C384.749 86.232 384.997 86.748 385.029 87.404H383.661C383.637 87.108 383.517 86.872 383.301 86.696C383.085 86.52 382.793 86.432 382.425 86.432C382.065 86.432 381.789 86.5 381.597 86.636C381.405 86.772 381.309 86.952 381.309 87.176C381.309 87.352 381.373 87.5 381.501 87.62C381.629 87.74 381.785 87.836 381.969 87.908C382.153 87.972 382.425 88.056 382.785 88.16C383.265 88.288 383.657 88.42 383.961 88.556C384.273 88.684 384.541 88.876 384.765 89.132C384.989 89.388 385.105 89.728 385.113 90.152C385.113 90.528 385.009 90.864 384.801 91.16C384.593 91.456 384.297 91.688 383.913 91.856C383.537 92.024 383.093 92.108 382.581 92.108Z" fill="#F05133"/>
<path d="M89.288 56.66V57.776H87.068V65H85.7V57.776H83.468V56.66H89.288ZM90.2174 61.664C90.2174 61 90.3534 60.412 90.6254 59.9C90.9054 59.388 91.2814 58.992 91.7534 58.712C92.2334 58.424 92.7614 58.28 93.3374 58.28C93.8574 58.28 94.3094 58.384 94.6934 58.592C95.0854 58.792 95.3974 59.044 95.6294 59.348V58.388H97.0094V65H95.6294V64.016C95.3974 64.328 95.0814 64.588 94.6814 64.796C94.2814 65.004 93.8254 65.108 93.3134 65.108C92.7454 65.108 92.2254 64.964 91.7534 64.676C91.2814 64.38 90.9054 63.972 90.6254 63.452C90.3534 62.924 90.2174 62.328 90.2174 61.664ZM95.6294 61.688C95.6294 61.232 95.5334 60.836 95.3414 60.5C95.1574 60.164 94.9134 59.908 94.6094 59.732C94.3054 59.556 93.9774 59.468 93.6254 59.468C93.2734 59.468 92.9454 59.556 92.6414 59.732C92.3374 59.9 92.0894 60.152 91.8974 60.488C91.7134 60.816 91.6214 61.208 91.6214 61.664C91.6214 62.12 91.7134 62.52 91.8974 62.864C92.0894 63.208 92.3374 63.472 92.6414 63.656C92.9534 63.832 93.2814 63.92 93.6254 63.92C93.9774 63.92 94.3054 63.832 94.6094 63.656C94.9134 63.48 95.1574 63.224 95.3414 62.888C95.5334 62.544 95.6294 62.144 95.6294 61.688ZM100.174 59.372C100.406 59.052 100.722 58.792 101.122 58.592C101.53 58.384 101.982 58.28 102.478 58.28C103.062 58.28 103.59 58.42 104.062 58.7C104.534 58.98 104.906 59.38 105.178 59.9C105.45 60.412 105.586 61 105.586 61.664C105.586 62.328 105.45 62.924 105.178 63.452C104.906 63.972 104.53 64.38 104.05 64.676C103.578 64.964 103.054 65.108 102.478 65.108C101.966 65.108 101.51 65.008 101.11 64.808C100.718 64.608 100.406 64.352 100.174 64.04V65H98.8063V56.12H100.174V59.372ZM104.194 61.664C104.194 61.208 104.098 60.816 103.906 60.488C103.722 60.152 103.474 59.9 103.162 59.732C102.858 59.556 102.53 59.468 102.178 59.468C101.834 59.468 101.506 59.556 101.194 59.732C100.89 59.908 100.642 60.164 100.45 60.5C100.266 60.836 100.174 61.232 100.174 61.688C100.174 62.144 100.266 62.544 100.45 62.888C100.642 63.224 100.89 63.48 101.194 63.656C101.506 63.832 101.834 63.92 102.178 63.92C102.53 63.92 102.858 63.832 103.162 63.656C103.474 63.472 103.722 63.208 103.906 62.864C104.098 62.52 104.194 62.12 104.194 61.664ZM108.307 56.12V65H106.939V56.12H108.307ZM116.163 61.532C116.163 61.78 116.147 62.004 116.115 62.204H111.063C111.103 62.732 111.299 63.156 111.651 63.476C112.003 63.796 112.435 63.956 112.947 63.956C113.683 63.956 114.203 63.648 114.507 63.032H115.983C115.783 63.64 115.419 64.14 114.891 64.532C114.371 64.916 113.723 65.108 112.947 65.108C112.315 65.108 111.747 64.968 111.243 64.688C110.747 64.4 110.355 64 110.067 63.488C109.787 62.968 109.647 62.368 109.647 61.688C109.647 61.008 109.783 60.412 110.055 59.9C110.335 59.38 110.723 58.98 111.219 58.7C111.723 58.42 112.299 58.28 112.947 58.28C113.571 58.28 114.127 58.416 114.615 58.688C115.103 58.96 115.483 59.344 115.755 59.84C116.027 60.328 116.163 60.892 116.163 61.532ZM114.735 61.1C114.727 60.596 114.547 60.192 114.195 59.888C113.843 59.584 113.407 59.432 112.887 59.432C112.415 59.432 112.011 59.584 111.675 59.888C111.339 60.184 111.139 60.588 111.075 61.1H114.735ZM119.909 65.108C119.389 65.108 118.921 65.016 118.505 64.832C118.097 64.64 117.773 64.384 117.533 64.064C117.293 63.736 117.165 63.372 117.149 62.972H118.565C118.589 63.252 118.721 63.488 118.961 63.68C119.209 63.864 119.517 63.956 119.885 63.956C120.269 63.956 120.565 63.884 120.773 63.74C120.989 63.588 121.097 63.396 121.097 63.164C121.097 62.916 120.977 62.732 120.737 62.612C120.505 62.492 120.133 62.36 119.621 62.216C119.125 62.08 118.721 61.948 118.409 61.82C118.097 61.692 117.825 61.496 117.593 61.232C117.369 60.968 117.257 60.62 117.257 60.188C117.257 59.836 117.361 59.516 117.569 59.228C117.777 58.932 118.073 58.7 118.457 58.532C118.849 58.364 119.297 58.28 119.801 58.28C120.553 58.28 121.157 58.472 121.613 58.856C122.077 59.232 122.325 59.748 122.357 60.404H120.989C120.965 60.108 120.845 59.872 120.629 59.696C120.413 59.52 120.121 59.432 119.753 59.432C119.393 59.432 119.117 59.5 118.925 59.636C118.733 59.772 118.637 59.952 118.637 60.176C118.637 60.352 118.701 60.5 118.829 60.62C118.957 60.74 119.113 60.836 119.297 60.908C119.481 60.972 119.753 61.056 120.113 61.16C120.593 61.288 120.985 61.42 121.289 61.556C121.601 61.684 121.869 61.876 122.093 62.132C122.317 62.388 122.433 62.728 122.441 63.152C122.441 63.528 122.337 63.864 122.129 64.16C121.921 64.456 121.625 64.688 121.241 64.856C120.865 65.024 120.421 65.108 119.909 65.108Z" fill="#F05133"/>
<path d="M320.444 61.812C320.444 60.996 320.632 60.264 321.008 59.616C321.392 58.968 321.908 58.464 322.556 58.104C323.212 57.736 323.928 57.552 324.704 57.552C325.592 57.552 326.38 57.772 327.068 58.212C327.764 58.644 328.268 59.26 328.58 60.06H326.936C326.72 59.62 326.42 59.292 326.036 59.076C325.652 58.86 325.208 58.752 324.704 58.752C324.152 58.752 323.66 58.876 323.228 59.124C322.796 59.372 322.456 59.728 322.208 60.192C321.968 60.656 321.848 61.196 321.848 61.812C321.848 62.428 321.968 62.968 322.208 63.432C322.456 63.896 322.796 64.256 323.228 64.512C323.66 64.76 324.152 64.884 324.704 64.884C325.208 64.884 325.652 64.776 326.036 64.56C326.42 64.344 326.72 64.016 326.936 63.576H328.58C328.268 64.376 327.764 64.992 327.068 65.424C326.38 65.856 325.592 66.072 324.704 66.072C323.92 66.072 323.204 65.892 322.556 65.532C321.908 65.164 321.392 64.656 321.008 64.008C320.632 63.36 320.444 62.628 320.444 61.812ZM333.049 66.108C332.425 66.108 331.861 65.968 331.357 65.688C330.853 65.4 330.457 65 330.169 64.488C329.881 63.968 329.737 63.368 329.737 62.688C329.737 62.016 329.885 61.42 330.181 60.9C330.477 60.38 330.881 59.98 331.393 59.7C331.905 59.42 332.477 59.28 333.109 59.28C333.741 59.28 334.313 59.42 334.825 59.7C335.337 59.98 335.741 60.38 336.037 60.9C336.333 61.42 336.481 62.016 336.481 62.688C336.481 63.36 336.329 63.956 336.025 64.476C335.721 64.996 335.305 65.4 334.777 65.688C334.257 65.968 333.681 66.108 333.049 66.108ZM333.049 64.92C333.401 64.92 333.729 64.836 334.033 64.668C334.345 64.5 334.597 64.248 334.789 63.912C334.981 63.576 335.077 63.168 335.077 62.688C335.077 62.208 334.985 61.804 334.801 61.476C334.617 61.14 334.373 60.888 334.069 60.72C333.765 60.552 333.437 60.468 333.085 60.468C332.733 60.468 332.405 60.552 332.101 60.72C331.805 60.888 331.569 61.14 331.393 61.476C331.217 61.804 331.129 62.208 331.129 62.688C331.129 63.4 331.309 63.952 331.669 64.344C332.037 64.728 332.497 64.92 333.049 64.92ZM339.202 57.12V66H337.834V57.12H339.202ZM342.366 57.12V66H340.998V57.12H342.366ZM350.222 62.532C350.222 62.78 350.206 63.004 350.174 63.204H345.122C345.162 63.732 345.358 64.156 345.71 64.476C346.062 64.796 346.494 64.956 347.006 64.956C347.742 64.956 348.262 64.648 348.566 64.032H350.042C349.842 64.64 349.478 65.14 348.95 65.532C348.43 65.916 347.782 66.108 347.006 66.108C346.374 66.108 345.806 65.968 345.302 65.688C344.806 65.4 344.414 65 344.126 64.488C343.846 63.968 343.706 63.368 343.706 62.688C343.706 62.008 343.842 61.412 344.114 60.9C344.394 60.38 344.782 59.98 345.278 59.7C345.782 59.42 346.358 59.28 347.006 59.28C347.63 59.28 348.186 59.416 348.674 59.688C349.162 59.96 349.542 60.344 349.814 60.84C350.086 61.328 350.222 61.892 350.222 62.532ZM348.794 62.1C348.786 61.596 348.606 61.192 348.254 60.888C347.902 60.584 347.466 60.432 346.946 60.432C346.474 60.432 346.07 60.584 345.734 60.888C345.398 61.184 345.198 61.588 345.134 62.1H348.794ZM351.112 62.688C351.112 62.008 351.248 61.412 351.52 60.9C351.8 60.38 352.184 59.98 352.672 59.7C353.16 59.42 353.72 59.28 354.352 59.28C355.152 59.28 355.812 59.472 356.332 59.856C356.86 60.232 357.216 60.772 357.4 61.476H355.924C355.804 61.148 355.612 60.892 355.348 60.708C355.084 60.524 354.752 60.432 354.352 60.432C353.792 60.432 353.344 60.632 353.008 61.032C352.68 61.424 352.516 61.976 352.516 62.688C352.516 63.4 352.68 63.956 353.008 64.356C353.344 64.756 353.792 64.956 354.352 64.956C355.144 64.956 355.668 64.608 355.924 63.912H357.4C357.208 64.584 356.848 65.12 356.32 65.52C355.792 65.912 355.136 66.108 354.352 66.108C353.72 66.108 353.16 65.968 352.672 65.688C352.184 65.4 351.8 65 351.52 64.488C351.248 63.968 351.112 63.368 351.112 62.688ZM360.359 60.504V64.164C360.359 64.412 360.415 64.592 360.527 64.704C360.647 64.808 360.847 64.86 361.127 64.86H361.967V66H360.887C360.271 66 359.799 65.856 359.471 65.568C359.143 65.28 358.979 64.812 358.979 64.164V60.504H358.199V59.388H358.979V57.744H360.359V59.388H361.967V60.504H360.359ZM363.924 58.512C363.676 58.512 363.468 58.428 363.3 58.26C363.132 58.092 363.048 57.884 363.048 57.636C363.048 57.388 363.132 57.18 363.3 57.012C363.468 56.844 363.676 56.76 363.924 56.76C364.164 56.76 364.368 56.844 364.536 57.012C364.704 57.18 364.788 57.388 364.788 57.636C364.788 57.884 364.704 58.092 364.536 58.26C364.368 58.428 364.164 58.512 363.924 58.512ZM364.596 59.388V66H363.228V59.388H364.596ZM369.26 66.108C368.636 66.108 368.072 65.968 367.568 65.688C367.064 65.4 366.668 65 366.38 64.488C366.092 63.968 365.948 63.368 365.948 62.688C365.948 62.016 366.096 61.42 366.392 60.9C366.688 60.38 367.092 59.98 367.604 59.7C368.116 59.42 368.688 59.28 369.32 59.28C369.952 59.28 370.524 59.42 371.036 59.7C371.548 59.98 371.952 60.38 372.248 60.9C372.544 61.42 372.692 62.016 372.692 62.688C372.692 63.36 372.54 63.956 372.236 64.476C371.932 64.996 371.516 65.4 370.988 65.688C370.468 65.968 369.892 66.108 369.26 66.108ZM369.26 64.92C369.612 64.92 369.94 64.836 370.244 64.668C370.556 64.5 370.808 64.248 371 63.912C371.192 63.576 371.288 63.168 371.288 62.688C371.288 62.208 371.196 61.804 371.012 61.476C370.828 61.14 370.584 60.888 370.28 60.72C369.976 60.552 369.648 60.468 369.296 60.468C368.944 60.468 368.616 60.552 368.312 60.72C368.016 60.888 367.78 61.14 367.604 61.476C367.428 61.804 367.34 62.208 367.34 62.688C367.34 63.4 367.52 63.952 367.88 64.344C368.248 64.728 368.708 64.92 369.26 64.92ZM377.381 59.28C377.901 59.28 378.365 59.388 378.773 59.604C379.189 59.82 379.513 60.14 379.745 60.564C379.977 60.988 380.093 61.5 380.093 62.1V66H378.737V62.304C378.737 61.712 378.589 61.26 378.293 60.948C377.997 60.628 377.593 60.468 377.081 60.468C376.569 60.468 376.161 60.628 375.857 60.948C375.561 61.26 375.413 61.712 375.413 62.304V66H374.045V59.388H375.413V60.144C375.637 59.872 375.921 59.66 376.265 59.508C376.617 59.356 376.989 59.28 377.381 59.28ZM384.238 66.108C383.718 66.108 383.25 66.016 382.834 65.832C382.426 65.64 382.102 65.384 381.862 65.064C381.622 64.736 381.494 64.372 381.478 63.972H382.894C382.918 64.252 383.05 64.488 383.29 64.68C383.538 64.864 383.846 64.956 384.214 64.956C384.598 64.956 384.894 64.884 385.102 64.74C385.318 64.588 385.426 64.396 385.426 64.164C385.426 63.916 385.306 63.732 385.066 63.612C384.834 63.492 384.462 63.36 383.95 63.216C383.454 63.08 383.05 62.948 382.738 62.82C382.426 62.692 382.154 62.496 381.922 62.232C381.698 61.968 381.586 61.62 381.586 61.188C381.586 60.836 381.69 60.516 381.898 60.228C382.106 59.932 382.402 59.7 382.786 59.532C383.178 59.364 383.626 59.28 384.13 59.28C384.882 59.28 385.486 59.472 385.942 59.856C386.406 60.232 386.654 60.748 386.686 61.404H385.318C385.294 61.108 385.174 60.872 384.958 60.696C384.742 60.52 384.45 60.432 384.082 60.432C383.722 60.432 383.446 60.5 383.254 60.636C383.062 60.772 382.966 60.952 382.966 61.176C382.966 61.352 383.03 61.5 383.158 61.62C383.286 61.74 383.442 61.836 383.626 61.908C383.81 61.972 384.082 62.056 384.442 62.16C384.922 62.288 385.314 62.42 385.618 62.556C385.93 62.684 386.198 62.876 386.422 63.132C386.646 63.388 386.762 63.728 386.77 64.152C386.77 64.528 386.666 64.864 386.458 65.16C386.25 65.456 385.954 65.688 385.57 65.856C385.194 66.024 384.75 66.108 384.238 66.108Z" fill="#F05133"/>
<path d="M83.624 36.66C84.512 36.66 85.288 36.832 85.952 37.176C86.624 37.512 87.14 38 87.5 38.64C87.868 39.272 88.052 40.012 88.052 40.86C88.052 41.708 87.868 42.444 87.5 43.068C87.14 43.692 86.624 44.172 85.952 44.508C85.288 44.836 84.512 45 83.624 45H80.9V36.66H83.624ZM83.624 43.884C84.6 43.884 85.348 43.62 85.868 43.092C86.388 42.564 86.648 41.82 86.648 40.86C86.648 39.892 86.388 39.136 85.868 38.592C85.348 38.048 84.6 37.776 83.624 37.776H82.268V43.884H83.624ZM88.9518 41.664C88.9518 41 89.0878 40.412 89.3598 39.9C89.6398 39.388 90.0158 38.992 90.4878 38.712C90.9678 38.424 91.4958 38.28 92.0718 38.28C92.5918 38.28 93.0438 38.384 93.4278 38.592C93.8198 38.792 94.1318 39.044 94.3638 39.348V38.388H95.7438V45H94.3638V44.016C94.1318 44.328 93.8158 44.588 93.4158 44.796C93.0158 45.004 92.5598 45.108 92.0478 45.108C91.4798 45.108 90.9598 44.964 90.4878 44.676C90.0158 44.38 89.6398 43.972 89.3598 43.452C89.0878 42.924 88.9518 42.328 88.9518 41.664ZM94.3638 41.688C94.3638 41.232 94.2678 40.836 94.0758 40.5C93.8918 40.164 93.6478 39.908 93.3438 39.732C93.0398 39.556 92.7118 39.468 92.3598 39.468C92.0078 39.468 91.6798 39.556 91.3758 39.732C91.0718 39.9 90.8238 40.152 90.6318 40.488C90.4478 40.816 90.3558 41.208 90.3558 41.664C90.3558 42.12 90.4478 42.52 90.6318 42.864C90.8238 43.208 91.0718 43.472 91.3758 43.656C91.6878 43.832 92.0158 43.92 92.3598 43.92C92.7118 43.92 93.0398 43.832 93.3438 43.656C93.6478 43.48 93.8918 43.224 94.0758 42.888C94.2678 42.544 94.3638 42.144 94.3638 41.688ZM99.1366 39.504V43.164C99.1366 43.412 99.1926 43.592 99.3046 43.704C99.4246 43.808 99.6246 43.86 99.9046 43.86H100.745V45H99.6646C99.0486 45 98.5766 44.856 98.2486 44.568C97.9206 44.28 97.7566 43.812 97.7566 43.164V39.504H96.9766V38.388H97.7566V36.744H99.1366V38.388H100.745V39.504H99.1366ZM101.549 41.664C101.549 41 101.685 40.412 101.957 39.9C102.237 39.388 102.613 38.992 103.085 38.712C103.565 38.424 104.093 38.28 104.669 38.28C105.189 38.28 105.641 38.384 106.025 38.592C106.417 38.792 106.729 39.044 106.961 39.348V38.388H108.341V45H106.961V44.016C106.729 44.328 106.413 44.588 106.013 44.796C105.613 45.004 105.157 45.108 104.645 45.108C104.077 45.108 103.557 44.964 103.085 44.676C102.613 44.38 102.237 43.972 101.957 43.452C101.685 42.924 101.549 42.328 101.549 41.664ZM106.961 41.688C106.961 41.232 106.865 40.836 106.673 40.5C106.489 40.164 106.245 39.908 105.941 39.732C105.637 39.556 105.309 39.468 104.957 39.468C104.605 39.468 104.277 39.556 103.973 39.732C103.669 39.9 103.421 40.152 103.229 40.488C103.045 40.816 102.953 41.208 102.953 41.664C102.953 42.12 103.045 42.52 103.229 42.864C103.421 43.208 103.669 43.472 103.973 43.656C104.285 43.832 104.613 43.92 104.957 43.92C105.309 43.92 105.637 43.832 105.941 43.656C106.245 43.48 106.489 43.224 106.673 42.888C106.865 42.544 106.961 42.144 106.961 41.688ZM111.506 39.372C111.738 39.052 112.054 38.792 112.454 38.592C112.862 38.384 113.314 38.28 113.81 38.28C114.394 38.28 114.922 38.42 115.394 38.7C115.866 38.98 116.238 39.38 116.51 39.9C116.782 40.412 116.918 41 116.918 41.664C116.918 42.328 116.782 42.924 116.51 43.452C116.238 43.972 115.862 44.38 115.382 44.676C114.91 44.964 114.386 45.108 113.81 45.108C113.298 45.108 112.842 45.008 112.442 44.808C112.05 44.608 111.738 44.352 111.506 44.04V45H110.138V36.12H111.506V39.372ZM115.526 41.664C115.526 41.208 115.43 40.816 115.238 40.488C115.054 40.152 114.806 39.9 114.494 39.732C114.19 39.556 113.862 39.468 113.51 39.468C113.166 39.468 112.838 39.556 112.526 39.732C112.222 39.908 111.974 40.164 111.782 40.5C111.598 40.836 111.506 41.232 111.506 41.688C111.506 42.144 111.598 42.544 111.782 42.888C111.974 43.224 112.222 43.48 112.526 43.656C112.838 43.832 113.166 43.92 113.51 43.92C113.862 43.92 114.19 43.832 114.494 43.656C114.806 43.472 115.054 43.208 115.238 42.864C115.43 42.52 115.526 42.12 115.526 41.664ZM117.815 41.664C117.815 41 117.951 40.412 118.223 39.9C118.503 39.388 118.879 38.992 119.351 38.712C119.831 38.424 120.359 38.28 120.935 38.28C121.455 38.28 121.907 38.384 122.291 38.592C122.683 38.792 122.995 39.044 123.227 39.348V38.388H124.607V45H123.227V44.016C122.995 44.328 122.679 44.588 122.279 44.796C121.879 45.004 121.423 45.108 120.911 45.108C120.343 45.108 119.823 44.964 119.351 44.676C118.879 44.38 118.503 43.972 118.223 43.452C117.951 42.924 117.815 42.328 117.815 41.664ZM123.227 41.688C123.227 41.232 123.131 40.836 122.939 40.5C122.755 40.164 122.511 39.908 122.207 39.732C121.903 39.556 121.575 39.468 121.223 39.468C120.871 39.468 120.543 39.556 120.239 39.732C119.935 39.9 119.687 40.152 119.495 40.488C119.311 40.816 119.219 41.208 119.219 41.664C119.219 42.12 119.311 42.52 119.495 42.864C119.687 43.208 119.935 43.472 120.239 43.656C120.551 43.832 120.879 43.92 121.223 43.92C121.575 43.92 121.903 43.832 122.207 43.656C122.511 43.48 122.755 43.224 122.939 42.888C123.131 42.544 123.227 42.144 123.227 41.688ZM128.804 45.108C128.284 45.108 127.816 45.016 127.4 44.832C126.992 44.64 126.668 44.384 126.428 44.064C126.188 43.736 126.06 43.372 126.044 42.972H127.46C127.484 43.252 127.616 43.488 127.856 43.68C128.104 43.864 128.412 43.956 128.78 43.956C129.164 43.956 129.46 43.884 129.668 43.74C129.884 43.588 129.992 43.396 129.992 43.164C129.992 42.916 129.872 42.732 129.632 42.612C129.4 42.492 129.028 42.36 128.516 42.216C128.02 42.08 127.616 41.948 127.304 41.82C126.992 41.692 126.72 41.496 126.488 41.232C126.264 40.968 126.152 40.62 126.152 40.188C126.152 39.836 126.256 39.516 126.464 39.228C126.672 38.932 126.968 38.7 127.352 38.532C127.744 38.364 128.192 38.28 128.696 38.28C129.448 38.28 130.052 38.472 130.508 38.856C130.972 39.232 131.22 39.748 131.252 40.404H129.884C129.86 40.108 129.74 39.872 129.524 39.696C129.308 39.52 129.016 39.432 128.648 39.432C128.288 39.432 128.012 39.5 127.82 39.636C127.628 39.772 127.532 39.952 127.532 40.176C127.532 40.352 127.596 40.5 127.724 40.62C127.852 40.74 128.008 40.836 128.192 40.908C128.376 40.972 128.648 41.056 129.008 41.16C129.488 41.288 129.88 41.42 130.184 41.556C130.496 41.684 130.764 41.876 130.988 42.132C131.212 42.388 131.328 42.728 131.336 43.152C131.336 43.528 131.232 43.864 131.024 44.16C130.816 44.456 130.52 44.688 130.136 44.856C129.76 45.024 129.316 45.108 128.804 45.108ZM138.874 41.532C138.874 41.78 138.858 42.004 138.826 42.204H133.774C133.814 42.732 134.01 43.156 134.362 43.476C134.714 43.796 135.146 43.956 135.658 43.956C136.394 43.956 136.914 43.648 137.218 43.032H138.694C138.494 43.64 138.13 44.14 137.602 44.532C137.082 44.916 136.434 45.108 135.658 45.108C135.026 45.108 134.458 44.968 133.954 44.688C133.458 44.4 133.066 44 132.778 43.488C132.498 42.968 132.358 42.368 132.358 41.688C132.358 41.008 132.494 40.412 132.766 39.9C133.046 39.38 133.434 38.98 133.93 38.7C134.434 38.42 135.01 38.28 135.658 38.28C136.282 38.28 136.838 38.416 137.326 38.688C137.814 38.96 138.194 39.344 138.466 39.84C138.738 40.328 138.874 40.892 138.874 41.532ZM137.446 41.1C137.438 40.596 137.258 40.192 136.906 39.888C136.554 39.584 136.118 39.432 135.598 39.432C135.126 39.432 134.722 39.584 134.386 39.888C134.05 40.184 133.85 40.588 133.786 41.1H137.446Z" fill="#F05133"/>
<path d="M330.624 36.66C331.512 36.66 332.288 36.832 332.952 37.176C333.624 37.512 334.14 38 334.5 38.64C334.868 39.272 335.052 40.012 335.052 40.86C335.052 41.708 334.868 42.444 334.5 43.068C334.14 43.692 333.624 44.172 332.952 44.508C332.288 44.836 331.512 45 330.624 45H327.9V36.66H330.624ZM330.624 43.884C331.6 43.884 332.348 43.62 332.868 43.092C333.388 42.564 333.648 41.82 333.648 40.86C333.648 39.892 333.388 39.136 332.868 38.592C332.348 38.048 331.6 37.776 330.624 37.776H329.268V43.884H330.624ZM335.952 41.664C335.952 41 336.088 40.412 336.36 39.9C336.64 39.388 337.016 38.992 337.488 38.712C337.968 38.424 338.496 38.28 339.072 38.28C339.592 38.28 340.044 38.384 340.428 38.592C340.82 38.792 341.132 39.044 341.364 39.348V38.388H342.744V45H341.364V44.016C341.132 44.328 340.816 44.588 340.416 44.796C340.016 45.004 339.56 45.108 339.048 45.108C338.48 45.108 337.96 44.964 337.488 44.676C337.016 44.38 336.64 43.972 336.36 43.452C336.088 42.924 335.952 42.328 335.952 41.664ZM341.364 41.688C341.364 41.232 341.268 40.836 341.076 40.5C340.892 40.164 340.648 39.908 340.344 39.732C340.04 39.556 339.712 39.468 339.36 39.468C339.008 39.468 338.68 39.556 338.376 39.732C338.072 39.9 337.824 40.152 337.632 40.488C337.448 40.816 337.356 41.208 337.356 41.664C337.356 42.12 337.448 42.52 337.632 42.864C337.824 43.208 338.072 43.472 338.376 43.656C338.688 43.832 339.016 43.92 339.36 43.92C339.712 43.92 340.04 43.832 340.344 43.656C340.648 43.48 340.892 43.224 341.076 42.888C341.268 42.544 341.364 42.144 341.364 41.688ZM346.137 39.504V43.164C346.137 43.412 346.193 43.592 346.305 43.704C346.425 43.808 346.625 43.86 346.905 43.86H347.745V45H346.665C346.049 45 345.577 44.856 345.249 44.568C344.921 44.28 344.757 43.812 344.757 43.164V39.504H343.977V38.388H344.757V36.744H346.137V38.388H347.745V39.504H346.137ZM348.549 41.664C348.549 41 348.685 40.412 348.957 39.9C349.237 39.388 349.613 38.992 350.085 38.712C350.565 38.424 351.093 38.28 351.669 38.28C352.189 38.28 352.641 38.384 353.025 38.592C353.417 38.792 353.729 39.044 353.961 39.348V38.388H355.341V45H353.961V44.016C353.729 44.328 353.413 44.588 353.013 44.796C352.613 45.004 352.157 45.108 351.645 45.108C351.077 45.108 350.557 44.964 350.085 44.676C349.613 44.38 349.237 43.972 348.957 43.452C348.685 42.924 348.549 42.328 348.549 41.664ZM353.961 41.688C353.961 41.232 353.865 40.836 353.673 40.5C353.489 40.164 353.245 39.908 352.941 39.732C352.637 39.556 352.309 39.468 351.957 39.468C351.605 39.468 351.277 39.556 350.973 39.732C350.669 39.9 350.421 40.152 350.229 40.488C350.045 40.816 349.953 41.208 349.953 41.664C349.953 42.12 350.045 42.52 350.229 42.864C350.421 43.208 350.669 43.472 350.973 43.656C351.285 43.832 351.613 43.92 351.957 43.92C352.309 43.92 352.637 43.832 352.941 43.656C353.245 43.48 353.489 43.224 353.673 42.888C353.865 42.544 353.961 42.144 353.961 41.688ZM358.506 39.372C358.738 39.052 359.054 38.792 359.454 38.592C359.862 38.384 360.314 38.28 360.81 38.28C361.394 38.28 361.922 38.42 362.394 38.7C362.866 38.98 363.238 39.38 363.51 39.9C363.782 40.412 363.918 41 363.918 41.664C363.918 42.328 363.782 42.924 363.51 43.452C363.238 43.972 362.862 44.38 362.382 44.676C361.91 44.964 361.386 45.108 360.81 45.108C360.298 45.108 359.842 45.008 359.442 44.808C359.05 44.608 358.738 44.352 358.506 44.04V45H357.138V36.12H358.506V39.372ZM362.526 41.664C362.526 41.208 362.43 40.816 362.238 40.488C362.054 40.152 361.806 39.9 361.494 39.732C361.19 39.556 360.862 39.468 360.51 39.468C360.166 39.468 359.838 39.556 359.526 39.732C359.222 39.908 358.974 40.164 358.782 40.5C358.598 40.836 358.506 41.232 358.506 41.688C358.506 42.144 358.598 42.544 358.782 42.888C358.974 43.224 359.222 43.48 359.526 43.656C359.838 43.832 360.166 43.92 360.51 43.92C360.862 43.92 361.19 43.832 361.494 43.656C361.806 43.472 362.054 43.208 362.238 42.864C362.43 42.52 362.526 42.12 362.526 41.664ZM364.815 41.664C364.815 41 364.951 40.412 365.223 39.9C365.503 39.388 365.879 38.992 366.351 38.712C366.831 38.424 367.359 38.28 367.935 38.28C368.455 38.28 368.907 38.384 369.291 38.592C369.683 38.792 369.995 39.044 370.227 39.348V38.388H371.607V45H370.227V44.016C369.995 44.328 369.679 44.588 369.279 44.796C368.879 45.004 368.423 45.108 367.911 45.108C367.343 45.108 366.823 44.964 366.351 44.676C365.879 44.38 365.503 43.972 365.223 43.452C364.951 42.924 364.815 42.328 364.815 41.664ZM370.227 41.688C370.227 41.232 370.131 40.836 369.939 40.5C369.755 40.164 369.511 39.908 369.207 39.732C368.903 39.556 368.575 39.468 368.223 39.468C367.871 39.468 367.543 39.556 367.239 39.732C366.935 39.9 366.687 40.152 366.495 40.488C366.311 40.816 366.219 41.208 366.219 41.664C366.219 42.12 366.311 42.52 366.495 42.864C366.687 43.208 366.935 43.472 367.239 43.656C367.551 43.832 367.879 43.92 368.223 43.92C368.575 43.92 368.903 43.832 369.207 43.656C369.511 43.48 369.755 43.224 369.939 42.888C370.131 42.544 370.227 42.144 370.227 41.688ZM375.804 45.108C375.284 45.108 374.816 45.016 374.4 44.832C373.992 44.64 373.668 44.384 373.428 44.064C373.188 43.736 373.06 43.372 373.044 42.972H374.46C374.484 43.252 374.616 43.488 374.856 43.68C375.104 43.864 375.412 43.956 375.78 43.956C376.164 43.956 376.46 43.884 376.668 43.74C376.884 43.588 376.992 43.396 376.992 43.164C376.992 42.916 376.872 42.732 376.632 42.612C376.4 42.492 376.028 42.36 375.516 42.216C375.02 42.08 374.616 41.948 374.304 41.82C373.992 41.692 373.72 41.496 373.488 41.232C373.264 40.968 373.152 40.62 373.152 40.188C373.152 39.836 373.256 39.516 373.464 39.228C373.672 38.932 373.968 38.7 374.352 38.532C374.744 38.364 375.192 38.28 375.696 38.28C376.448 38.28 377.052 38.472 377.508 38.856C377.972 39.232 378.22 39.748 378.252 40.404H376.884C376.86 40.108 376.74 39.872 376.524 39.696C376.308 39.52 376.016 39.432 375.648 39.432C375.288 39.432 375.012 39.5 374.82 39.636C374.628 39.772 374.532 39.952 374.532 40.176C374.532 40.352 374.596 40.5 374.724 40.62C374.852 40.74 375.008 40.836 375.192 40.908C375.376 40.972 375.648 41.056 376.008 41.16C376.488 41.288 376.88 41.42 377.184 41.556C377.496 41.684 377.764 41.876 377.988 42.132C378.212 42.388 378.328 42.728 378.336 43.152C378.336 43.528 378.232 43.864 378.024 44.16C377.816 44.456 377.52 44.688 377.136 44.856C376.76 45.024 376.316 45.108 375.804 45.108ZM385.874 41.532C385.874 41.78 385.858 42.004 385.826 42.204H380.774C380.814 42.732 381.01 43.156 381.362 43.476C381.714 43.796 382.146 43.956 382.658 43.956C383.394 43.956 383.914 43.648 384.218 43.032H385.694C385.494 43.64 385.13 44.14 384.602 44.532C384.082 44.916 383.434 45.108 382.658 45.108C382.026 45.108 381.458 44.968 380.954 44.688C380.458 44.4 380.066 44 379.778 43.488C379.498 42.968 379.358 42.368 379.358 41.688C379.358 41.008 379.494 40.412 379.766 39.9C380.046 39.38 380.434 38.98 380.93 38.7C381.434 38.42 382.01 38.28 382.658 38.28C383.282 38.28 383.838 38.416 384.326 38.688C384.814 38.96 385.194 39.344 385.466 39.84C385.738 40.328 385.874 40.892 385.874 41.532ZM384.446 41.1C384.438 40.596 384.258 40.192 383.906 39.888C383.554 39.584 383.118 39.432 382.598 39.432C382.126 39.432 381.722 39.584 381.386 39.888C381.05 40.184 380.85 40.588 380.786 41.1H384.446Z" fill="#F05133"/>
<line x1="149.5" y1="40.5" x2="319.5" y2="40.5" stroke="#F05133" stroke-linecap="round" stroke-dasharray="6 6"/>
<line x1="134.5" y1="62.5" x2="311.5" y2="62.5" stroke="#F05133" stroke-linecap="round" stroke-dasharray="6 6"/>
<line x1="129.5" y1="89.5" x2="305.5" y2="89.5" stroke="#F05133" stroke-linecap="round" stroke-dasharray="6 6"/>
<line x1="145.5" y1="119.5" x2="298.5" y2="119.5" stroke="#F05133" stroke-linecap="round" stroke-dasharray="6 6"/>
</g>
<defs>
<filter id="filter0_d_324_206" x="0" y="5.14355" width="456" height="193.856" filterUnits="userSpaceOnUse" color-interpolation-filters="sRGB">
<feFlood flood-opacity="0" result="BackgroundImageFix"/>
<feColorMatrix in="SourceAlpha" type="matrix" values="0 0 0 0 0 0 0 0 0 0 0 0 0 0 0 0 0 0 127 0" result="hardAlpha"/>
<feOffset dy="4"/>
<feGaussianBlur stdDeviation="2"/>
<feComposite in2="hardAlpha" operator="out"/>
<feColorMatrix type="matrix" values="0 0 0 0 0 0 0 0 0 0 0 0 0 0 0 0 0 0 0.25 0"/>
<feBlend mode="normal" in2="BackgroundImageFix" result="effect1_dropShadow_324_206"/>
<feBlend mode="normal" in="SourceGraphic" in2="effect1_dropShadow_324_206" result="shape"/>
</filter>
</defs>
</svg>
